<svg xmlns="http://www.w3.org/2000/svg" xmlns:xlink="http://www.w3.org/1999/xlink" xmlns:lucid="lucid" width="2647.58" height="875.17"><g transform="translate(-961.9158404249272 -150.33333333334315)" lucid:page-tab-id="0_0"><path d="M983.42 533.67a6 6 0 0 1 6-6h210.66a6 6 0 0 1 6 6v108a6 6 0 0 1-6 6H989.42a6 6 0 0 1-6-6z" stroke="#000" stroke-opacity="0" stroke-width="3" fill="#9391ff"/><use xlink:href="#a" transform="matrix(1,0,0,1,995.4158404249272,539.6666666666861) translate(3.6975308641975317 38.77777777777778)"/><use xlink:href="#b" transform="matrix(1,0,0,1,995.4158404249272,539.6666666666861) translate(65.79629629629629 38.77777777777778)"/><use xlink:href="#c" transform="matrix(1,0,0,1,995.4158404249272,539.6666666666861) translate(142.27777777777777 38.77777777777778)"/><use xlink:href="#d" transform="matrix(1,0,0,1,995.4158404249272,539.6666666666861) translate(66.19753086419753 65.44444444444446)"/><path d="M1830.54 533.67a6 6 0 0 1 6-6h148a6 6 0 0 1 6 6v108a6 6 0 0 1-6 6h-148a6 6 0 0 1-6-6z" stroke="#000" stroke-opacity="0" stroke-width="3" fill="#fc9432"/><use xlink:href="#e" transform="matrix(1,0,0,1,1842.5408404249079,539.6666666666861) translate(3.8950617283950635 38.77777777777778)"/><use xlink:href="#f" transform="matrix(1,0,0,1,1842.5408404249079,539.6666666666861) translate(32.22839506172839 38.77777777777778)"/><use xlink:href="#g" transform="matrix(1,0,0,1,1842.5408404249079,539.6666666666861) translate(25.870370370370374 65.44444444444446)"/><use xlink:href="#h" transform="matrix(1,0,0,1,1842.5408404249079,539.6666666666861) translate(87.96913580246914 65.44444444444446)"/><path d="M2216.42 567.67a40 40 0 0 1 40-40h80a40 40 0 0 1 40 40v40a40 40 0 0 1-40 40h-80a40 40 0 0 1-40-40z" stroke="#000" stroke-opacity="0" stroke-width="3" fill="#a7a6ff"/><use xlink:href="#i" transform="matrix(1,0,0,1,2228.4158404248883,539.6666666666861) translate(41.48765432098766 38.77777777777778)"/><use xlink:href="#j" transform="matrix(1,0,0,1,2228.4158404248883,539.6666666666861) translate(24.79012345679012 65.44444444444446)"/><path d="M1992.04 587.67h206.9" stroke="#3a414a" stroke-width="3" stroke-linejoin="round" fill="none"/><path d="M1992.08 589.14h-1.54v-2.95h1.54z" stroke="#3a414a" stroke-width=".05" fill="#3a414a"/><path d="M2213.42 587.67l-13 7.5v-15z" stroke="#3a414a" stroke-width="3" fill="#3a414a"/><path d="M2216.42 752a40 40 0 0 1 40-40h80a40 40 0 0 1 40 40v40a40 40 0 0 1-40 40h-80a40 40 0 0 1-40-40z" stroke="#000" stroke-opacity="0" stroke-width="3" fill="#a7a6ff"/><use xlink:href="#k" transform="matrix(1,0,0,1,2228.4158404248883,724) translate(41.51851851851852 38.77777777777778)"/><use xlink:href="#j" transform="matrix(1,0,0,1,2228.4158404248883,724) translate(24.79012345679012 65.44444444444446)"/><path d="M2216.42 211.83a40 40 0 0 1 40-40h80a40 40 0 0 1 40 40v40a40 40 0 0 1-40 40h-80a40 40 0 0 1-40-40z" stroke="#000" stroke-opacity="0" stroke-width="3" fill="#a7a6ff"/><use xlink:href="#l" transform="matrix(1,0,0,1,2228.4158404248883,183.83333333334315) translate(7.166666666666664 53.77777777777778)"/><use xlink:href="#j" transform="matrix(1,0,0,1,2228.4158404248883,183.83333333334315) translate(42.413580246913575 53.77777777777778)"/><path d="M2216.42 396.17a40 40 0 0 1 40-40h80a40 40 0 0 1 40 40v40a40 40 0 0 1-40 40h-80a40 40 0 0 1-40-40z" stroke="#000" stroke-opacity="0" stroke-width="3" fill="#a7a6ff"/><use xlink:href="#m" transform="matrix(1,0,0,1,2228.4158404248883,368.1666666666571) translate(33.55555555555556 38.77777777777778)"/><use xlink:href="#j" transform="matrix(1,0,0,1,2228.4158404248883,368.1666666666571) translate(24.79012345679012 65.44444444444446)"/><path d="M2216.42 924a40 40 0 0 1 40-40h80a40 40 0 0 1 40 40v40a40 40 0 0 1-40 40h-80a40 40 0 0 1-40-40z" stroke="#000" stroke-opacity="0" stroke-width="3" fill="#a7a6ff"/><use xlink:href="#n" transform="matrix(1,0,0,1,2228.4158404248883,896.0000000000001) translate(37.2283950617284 38.77777777777778)"/><use xlink:href="#j" transform="matrix(1,0,0,1,2228.4158404248883,896.0000000000001) translate(24.79012345679012 65.44444444444446)"/><path d="M1992.04 587.7l2.75.05 4.04.26 3.9.42 3.74.55 3.63.7 3.56.83 3.47.97 3.4 1.1 3.38 1.26 3.36 1.4 3.34 1.58 3.36 1.76 3.38 1.96 3.43 2.18 3.5 2.43 3.62 2.74 3.73 3.1 3.92 3.54 4.16 4.1 4.5 4.77 4.96 5.75 5.67 7.17 6.95 9.58 10.4 15.74 33 52.17 6.95 9.58 5.67 7.17 4.95 5.75 4.5 4.78 4.15 4.08 3.93 3.53 3.74 3.1 3.6 2.73 3.5 2.44 3.45 2.18 3.38 1.95 3.35 1.76 3.35 1.57 3.34 1.4 3.38 1.26 3.4 1.1 3.48.97 3.54.83 2.18.42" stroke="#3a414a" stroke-width="3" stroke-linejoin="round" fill="none"/><path d="M1992.1 586.22l-.05 2.95-1.5-.03v-2.95z" stroke="#3a414a" stroke-width=".05" fill="#3a414a"/><path d="M2213.43 771.73l-13.62 6.3 1.37-14.95z" stroke="#3a414a" stroke-width="3" fill="#3a414a"/><path d="M1992.04 587.63l3.06-.06 4.33-.27 4.14-.43 4-.6 3.84-.73 3.75-.88 3.66-1.02 3.6-1.16 3.54-1.32 3.5-1.48 3.5-1.64 3.52-1.84 3.54-2.04 3.6-2.28 3.66-2.55 3.78-2.88 3.93-3.25 4.15-3.74 4.43-4.34 4.84-5.16 5.46-6.34 6.54-8.27 9.05-12.52 37.1-54.35 6.55-8.26 5.47-6.34 4.84-5.17 4.44-4.33 4.14-3.73 3.94-3.26 3.78-2.87 3.67-2.55 3.6-2.27 3.53-2.05 3.5-1.83 3.5-1.65 3.52-1.48 3.54-1.3 3.6-1.18 3.64-1.03 3.75-.88 3.46-.67" stroke="#3a414a" stroke-width="3" stroke-linejoin="round" fill="none"/><path d="M1992.1 589.1l-1.56.04v-2.95l1.5-.04z" stroke="#3a414a" stroke-width=".05" fill="#3a414a"/><path d="M2213.43 416.42l-12.32 8.56-1.25-14.95z" stroke="#3a414a" stroke-width="3" fill="#3a414a"/><path d="M1992.04 587.63h.73l2.17-.15 2.14-.22 2.1-.3 2.08-.4 2.06-.5 2.06-.57 2.06-.68 2.06-.77 2.1-.87 2.1-1 2.13-1.1 2.18-1.27 2.25-1.4 2.3-1.6 2.37-1.8 2.47-2.06 2.57-2.32 2.7-2.65 2.85-3.04 3.04-3.52 3.25-4.1 3.52-4.83 3.84-5.8 4.25-7 4.8-8.73 5.52-11.17 6.65-14.98 8.68-22.02 15.26-44.38 33.6-101.68 8.68-22 6.66-15 5.52-11.16 4.8-8.72 4.24-7.02 3.84-5.8 3.5-4.83 3.26-4.1 3.03-3.53 2.86-3.04 2.7-2.65 2.57-2.32 2.46-2.05 2.38-1.8 2.3-1.6 2.24-1.4 2.2-1.27 2.13-1.12 2.1-.98 2.08-.88 1.8-.67" stroke="#3a414a" stroke-width="3" stroke-linejoin="round" fill="none"/><path d="M1992.1 589.1l-1.56.04v-2.95l1.5-.04z" stroke="#3a414a" stroke-width=".05" fill="#3a414a"/><path d="M2213.46 232.34l-11.54 9.6-2.53-14.8z" stroke="#3a414a" stroke-width="3" fill="#3a414a"/><path d="M1992.04 587.7h.73l2.17.15 2.13.22 2.1.3 2.07.4 2.07.5 2.06.57 2.06.67 2.06.77 2.08.88 2.1 1 2.14 1.1 2.18 1.27 2.23 1.4 2.3 1.6 2.38 1.8 2.47 2.05 2.57 2.32 2.7 2.64 2.85 3.04 3.04 3.5 3.25 4.12 3.5 4.83 3.85 5.78 4.24 7.03 4.78 8.7 5.52 11.16 6.64 14.95 8.65 21.95 15.1 43.9 34 102.97 8.64 21.95 6.64 14.95 5.53 11.15 4.78 8.72 4.26 7.02 3.83 5.77 3.5 4.84 3.25 4.1 3.03 3.52 2.86 3.03 2.7 2.64 2.57 2.32 2.47 2.03 2.38 1.8 2.3 1.6 2.23 1.42 2.18 1.26 2.13 1.13 2.1 1 2.08.86 1.78.66" stroke="#3a414a" stroke-width="3" stroke-linejoin="round" fill="none"/><path d="M1992.1 586.22l-.05 2.95-1.5-.03v-2.95z" stroke="#3a414a" stroke-width=".05" fill="#3a414a"/><path d="M2213.46 943.5l-14.07 5.2 2.52-14.8z" stroke="#3a414a" stroke-width="3" fill="#3a414a"/><path d="M2621.58 215.83a6 6 0 0 1 6-6h117a6 6 0 0 1 6 6v32a6 6 0 0 1-6 6h-117a6 6 0 0 1-6-6z" stroke="#000" stroke-opacity="0" stroke-width="3" fill="#fe7070"/><use xlink:href="#o" transform="matrix(1,0,0,1,2633.582507091516,221.83333333334315) translate(7.46913580246914 17.77777777777778)"/><use xlink:href="#p" transform="matrix(1,0,0,1,2633.582507091516,221.83333333334315) translate(49.44444444444445 17.77777777777778)"/><path d="M2377.92 231.83h226.17" stroke="#3a414a" stroke-width="3" stroke-linejoin="round" fill="none"/><path d="M2377.96 233.3h-1.54v-2.94h1.54z" stroke="#3a414a" stroke-width=".05" fill="#3a414a"/><path d="M2618.58 231.83l-13 7.5v-15z" stroke="#3a414a" stroke-width="3" fill="#3a414a"/><path d="M2377.92 416.13l3.5-.07 4.73-.3 4.53-.47 4.37-.66 4.2-.8 4.1-.96 4-1.12 3.93-1.27 3.87-1.45 3.83-1.6 3.82-1.8 3.83-2 3.87-2.25 3.92-2.48 4-2.8 4.14-3.13 4.3-3.57 4.53-4.1 4.85-4.74 5.32-5.68 6.02-7 7.26-9.18 10.4-14.37 37.88-55.1 7.27-9.2 6.03-7 5.32-5.66 4.85-4.74 4.54-4.1 4.3-3.55 4.13-3.13 4-2.8 3.93-2.47 3.86-2.24 3.84-2 3.82-1.8 3.83-1.6 3.87-1.45 3.92-1.26 4-1.12 4.1-.96 4.2-.8 1.22-.18" stroke="#3a414a" stroke-width="3" stroke-linejoin="round" fill="none"/><path d="M2378 417.6l-1.58.04v-2.95l1.5-.04z" stroke="#3a414a" stroke-width=".05" fill="#3a414a"/><path d="M2618.6 232.06l-12.38 8.48-1.16-14.95z" stroke="#3a414a" stroke-width="3" fill="#3a414a"/><path d="M2377.92 587.63l1.12-.02 2.55-.15 2.5-.26 2.45-.38 2.43-.46 2.4-.56 2.4-.67 2.38-.78 2.4-.9 2.4-1 2.43-1.14 2.46-1.28 2.5-1.46 2.58-1.63 2.64-1.83 2.72-2.07 2.83-2.34 2.94-2.66 3.1-3.03 3.25-3.46 3.47-4.02 3.7-4.7 4.02-5.53 4.4-6.64 4.9-8.1 5.55-10.12 6.52-13.17 8.1-18.28 11.7-29.78 48.1-132.7 8.1-18.3 6.53-13.16 5.56-10.13 4.88-8.1 4.4-6.62 4.02-5.53 3.7-4.7 3.48-4 3.26-3.48 3.08-3.04 2.95-2.65 2.82-2.33 2.72-2.07 2.64-1.83 2.57-1.63 2.5-1.45 2.47-1.3 2.44-1.15 2.4-1 2.4-.9 2.4-.78.1-.03" stroke="#3a414a" stroke-width="3" stroke-linejoin="round" fill="none"/><path d="M2378 589.1l-1.58.04v-2.95l1.5-.04z" stroke="#3a414a" stroke-width=".05" fill="#3a414a"/><path d="M2618.6 232.26l-11.76 9.3-2.16-14.85z" stroke="#3a414a" stroke-width="3" fill="#3a414a"/><path d="M2377.92 771.97h.23l1.7-.1 1.7-.2 1.67-.24 1.66-.32 1.67-.38 1.67-.46 1.68-.55 1.7-.62 1.72-.73 1.75-.82 1.8-.94 1.83-1.07 1.9-1.2 1.96-1.37 2.03-1.54 2.12-1.76 2.23-2 2.35-2.32 2.5-2.66 2.66-3.08 2.86-3.62 3.1-4.26 3.37-5.1 3.7-6.14 4.16-7.56 4.7-9.47 5.4-12.16 6.37-16.18 7.86-22.66 10.46-34.93 18.74-74.18 42.33-177.05 10.48-34.93 7.87-22.66 6.38-16.15 5.4-12.17 4.7-9.46 4.14-7.56 3.7-6.16 3.4-5.1 3.08-4.25 2.86-3.6 2.66-3.1 2.5-2.66 2.35-2.3 2.23-2.02 2.13-1.76 2.04-1.55 1.96-1.36 1.9-1.2 1.83-1.06 1.8-.94 1.7-.8" stroke="#3a414a" stroke-width="3" stroke-linejoin="round" fill="none"/><path d="M2378 773.44l-1.58.03v-2.95l1.5-.03z" stroke="#3a414a" stroke-width=".05" fill="#3a414a"/><path d="M2618.65 232.47l-11.1 10.08-3.18-14.66z" stroke="#3a414a" stroke-width="3" fill="#3a414a"/><path d="M2377.92 943.96l1.12-.07 1.3-.15 1.28-.2 1.3-.23 1.28-.3 1.3-.37 1.32-.43 1.34-.5 1.36-.57 1.4-.65 1.42-.75 1.47-.85 1.53-.97 1.58-1.1 1.66-1.25 1.73-1.43 1.8-1.64 1.94-1.88 2.06-2.2 2.2-2.55 2.38-3 2.58-3.57 2.83-4.26 3.12-5.18 3.5-6.36 3.94-7.97 4.53-10.2 5.28-13.4 6.34-18.28 7.88-26.23 10.47-41.1 16.7-79.8 58.96-317 10.47-41.1 7.88-26.24 6.33-18.27 5.3-13.4 4.53-10.2 3.95-7.96 3.5-6.37 3.12-5.17 2.83-4.27 2.6-3.56 2.37-3 2.2-2.56 2.06-2.18 1.93-1.9 1.8-1.64 1.74-1.43 1.65-1.25 1.57-1.1 1.52-.97.74-.43" stroke="#3a414a" stroke-width="3" stroke-linejoin="round" fill="none"/><path d="M2378 945.44l-1.58.03v-2.95l1.5-.03z" stroke="#3a414a" stroke-width=".05" fill="#3a414a"/><path d="M2618.7 232.64l-10.5 10.73-4.04-14.44z" stroke="#3a414a" stroke-width="3" fill="#3a414a"/><path d="M2752.1 231.87l4.77.1 6.04.37 5.84.62 5.66.83 5.5 1.04 5.4 1.27 5.3 1.5 5.22 1.7 5.2 1.9 5.16 2.2 5.17 2.42 5.2 2.72 5.25 3.03 5.34 3.4 5.45 3.78 5.6 4.25 5.78 4.8 6.04 5.45 6.37 6.23 6.76 7.22 7.3 8.48 8.06 10.17 9.15 12.6 10.94 16.5 14.78 24.5 70.6 126.1 10.93 16.5 9.16 12.6 8.05 10.17 7.33 8.48 6.77 7.22 6.36 6.23 6.04 5.45 5.8 4.8 5.6 4.25 5.45 3.8 5.33 3.38 5.25 3.03 5.2 2.72 5.18 2.43 5.17 2.18 5.2 1.94 5.22 1.7 5.3 1.47 5.38 1.26 5.5 1.05 5.66.84.7.08" stroke="#3a414a" stroke-width="3" stroke-linejoin="round" fill="none"/><path d="M2752.16 230.4l-.06 2.94-1.52-.03v-2.94z" stroke="#3a414a" stroke-width=".05" fill="#3a414a"/><path d="M3129 587.5l-13.4 6.7.9-14.98z" stroke="#3a414a" stroke-width="3" fill="#3a414a"/><path d="M3132 533.67a6 6 0 0 1 6-6h148a6 6 0 0 1 6 6v108a6 6 0 0 1-6 6h-148a6 6 0 0 1-6-6z" stroke="#000" stroke-opacity="0" stroke-width="3" fill="#fc9432"/><use xlink:href="#q" transform="matrix(1,0,0,1,3144.0000000000005,539.6666666666861) translate(26.086419753086417 26.77777777777778)"/><use xlink:href="#r" transform="matrix(1,0,0,1,3144.0000000000005,539.6666666666861) translate(41.48765432098766 53.44444444444445)"/><use xlink:href="#s" transform="matrix(1,0,0,1,3144.0000000000005,539.6666666666861) translate(18.061728395061728 80.11111111111111)"/><path d="M2377.92 231.87l1.12.02 2.55.15 2.5.26 2.45.38 2.43.46 2.4.56 2.4.67 2.38.78 2.4.9 2.4 1 2.43 1.14 2.46 1.3 2.5 1.44 2.58 1.63 2.64 1.83 2.72 2.07 2.83 2.34 2.94 2.66 3.1 3.03 3.25 3.46 3.47 4.02 3.7 4.7 4.02 5.53 4.4 6.64 4.9 8.1 5.55 10.12 6.52 13.17 8.1 18.28 11.7 29.78 48.1 132.7 8.1 18.3 6.53 13.16 5.56 10.13 4.88 8.1 4.4 6.62 4.02 5.53 3.7 4.7 3.48 4 3.26 3.48 3.08 3.04 2.95 2.65 2.82 2.33 2.72 2.07 2.64 1.83 2.57 1.63 2.5 1.46 2.47 1.3 2.44 1.13 2.4 1 2.4.9 2.4.78.1.03" stroke="#3a414a" stroke-width="3" stroke-linejoin="round" fill="none"/><path d="M2378 230.4l-.07 2.94-1.5-.03v-2.94z" stroke="#3a414a" stroke-width=".05" fill="#3a414a"/><path d="M2618.6 587.24l-13.92 5.55 2.16-14.85z" stroke="#3a414a" stroke-width="3" fill="#3a414a"/><path d="M2377.92 416.2l3.85.08 5.07.32 4.83.5 4.63.7 4.46.84 4.32 1 4.2 1.2 4.13 1.33 4.07 1.5 4.02 1.7 4 1.88 4 2.1 4.03 2.32 4.1 2.6 4.2 2.93 4.35 3.3 4.54 3.76 4.83 4.35 5.23 5.14 5.86 6.25 6.93 8.03 9.34 11.83 41.53 55.95 6.93 8.05 5.85 6.24 5.25 5.12 4.83 4.35 4.54 3.76 4.34 3.3 4.2 2.92 4.1 2.6 4.05 2.34 4 2.1 4 1.87 4.03 1.7 4.06 1.5 4.1 1.34 4.22 1.18 4.32 1.02 4.46.85 2.45.36" stroke="#3a414a" stroke-width="3" stroke-linejoin="round" fill="none"/><path d="M2378 414.72l-.07 2.95-1.5-.03v-2.95z" stroke="#3a414a" stroke-width=".05" fill="#3a414a"/><path d="M2618.6 587.45l-13.5 6.55 1.07-14.97z" stroke="#3a414a" stroke-width="3" fill="#3a414a"/><path d="M2377.92 587.67h226.17" stroke="#3a414a" stroke-width="3" stroke-linejoin="round" fill="none"/><path d="M2377.96 589.14h-1.54v-2.95h1.54z" stroke="#3a414a" stroke-width=".05" fill="#3a414a"/><path d="M2618.58 587.67l-13 7.5v-15z" stroke="#3a414a" stroke-width="3" fill="#3a414a"/><path d="M2377.92 771.97l3.5-.07 4.73-.3 4.53-.48 4.37-.64 4.2-.8 4.1-.97 4-1.1 3.93-1.28 3.87-1.44 3.83-1.6 3.82-1.8 3.83-2 3.87-2.24 3.92-2.5 4-2.78 4.14-3.13 4.3-3.57 4.53-4.08 4.85-4.76 5.32-5.67 6.02-7 7.26-9.18 10.4-14.37 37.88-55.1 7.27-9.2 6.03-7 5.32-5.65 4.85-4.76 4.54-4.1 4.3-3.56 4.13-3.14 4-2.78 3.93-2.5 3.86-2.22 3.84-2 3.82-1.8 3.83-1.62 3.87-1.44 3.92-1.27 4-1.12 4.1-.96 4.2-.8 1.22-.2" stroke="#3a414a" stroke-width="3" stroke-linejoin="round" fill="none"/><path d="M2378 773.44l-1.58.03v-2.95l1.5-.03z" stroke="#3a414a" stroke-width=".05" fill="#3a414a"/><path d="M2618.6 587.9l-12.38 8.47-1.16-14.95z" stroke="#3a414a" stroke-width="3" fill="#3a414a"/><path d="M2377.92 943.97l1.1-.02 2.56-.17 2.5-.26 2.45-.36 2.43-.46 2.4-.57 2.4-.66 2.38-.78 2.4-.9 2.4-1 2.42-1.15 2.47-1.3 2.5-1.44 2.57-1.62 2.64-1.83 2.72-2.07 2.82-2.34 2.94-2.65 3.1-3.03 3.25-3.48 3.46-4.02 3.7-4.68 4.02-5.54 4.4-6.62 4.88-8.08 5.55-10.12 6.5-13.14 8.1-18.25 11.66-29.62L2529 684.2l8.1-18.23 6.5-13.15 5.56-10.1 4.9-8.1 4.4-6.62 4-5.53 3.7-4.7 3.47-4 3.26-3.47 3.07-3.02 2.95-2.65 2.82-2.34 2.72-2.08 2.64-1.83 2.56-1.64 2.5-1.45 2.48-1.28 2.43-1.14 2.4-1 2.4-.9 2.38-.78.1-.02" stroke="#3a414a" stroke-width="3" stroke-linejoin="round" fill="none"/><path d="M2378 945.44l-1.58.03v-2.95l1.5-.03z" stroke="#3a414a" stroke-width=".05" fill="#3a414a"/><path d="M2618.6 588.1l-11.76 9.3-2.16-14.85z" stroke="#3a414a" stroke-width="3" fill="#3a414a"/><path d="M2752.1 587.67h362.4" stroke="#3a414a" stroke-width="3" stroke-linejoin="round" fill="none"/><path d="M2752.13 589.14h-1.55v-2.95h1.55z" stroke="#3a414a" stroke-width=".05" fill="#3a414a"/><path d="M3129 587.67l-13 7.5v-15z" stroke="#3a414a" stroke-width="3" fill="#3a414a"/><path d="M1375.8 515a6 6 0 0 1 6-6h273a6 6 0 0 1 6 6v145.33a6 6 0 0 1-6 6h-273a6 6 0 0 1-6-6z" stroke="#000" stroke-opacity="0" stroke-width="3" fill="#fc9432"/><use xlink:href="#t" transform="matrix(1,0,0,1,1387.811673758251,521.0000000000194) translate(7.691358024691354 59.65277777777778)"/><use xlink:href="#u" transform="matrix(1,0,0,1,1387.811673758251,521.0000000000194) translate(69.79012345679011 59.65277777777778)"/><use xlink:href="#v" transform="matrix(1,0,0,1,1387.811673758251,521.0000000000194) translate(164.5432098765432 59.65277777777778)"/><use xlink:href="#w" transform="matrix(1,0,0,1,1387.811673758251,521.0000000000194) translate(38.03086419753086 86.31944444444446)"/><use xlink:href="#x" transform="matrix(1,0,0,1,1387.811673758251,521.0000000000194) translate(119.38888888888887 86.31944444444446)"/><use xlink:href="#y" transform="matrix(1,0,0,1,1387.811673758251,521.0000000000194) translate(140.37654320987653 86.31944444444446)"/><path d="M1207.6 587.67h150.72" stroke="#3a414a" stroke-width="3" stroke-linejoin="round" fill="none"/><path d="M1207.62 589.14h-1.54v-2.95h1.54z" stroke="#3a414a" stroke-width=".05" fill="#3a414a"/><path d="M1372.8 587.67l-12.98 7.5v-15z" stroke="#3a414a" stroke-width="3" fill="#3a414a"/><path d="M1662.3 587.67h150.75" stroke="#3a414a" stroke-width="3" stroke-linejoin="round" fill="none"/><path d="M1662.35 589.14h-1.54v-2.95h1.55z" stroke="#3a414a" stroke-width=".05" fill="#3a414a"/><path d="M1827.54 587.67l-13 7.5v-15z" stroke="#3a414a" stroke-width="3" fill="#3a414a"/><path d="M2621.58 571.67a6 6 0 0 1 6-6h117a6 6 0 0 1 6 6v32a6 6 0 0 1-6 6h-117a6 6 0 0 1-6-6z" stroke="#000" stroke-opacity="0" stroke-width="3" fill="#fe7070"/><use xlink:href="#z" transform="matrix(1,0,0,1,2633.582507091516,577.6666666666861) translate(0.7407407407407476 17.77777777777778)"/><use xlink:href="#p" transform="matrix(1,0,0,1,2633.582507091516,577.6666666666861) translate(56.17283950617284 17.77777777777778)"/><path d="M2621.58 928a6 6 0 0 1 6-6h117a6 6 0 0 1 6 6v32a6 6 0 0 1-6 6h-117a6 6 0 0 1-6-6z" stroke="#000" stroke-opacity="0" stroke-width="3" fill="#fe7070"/><use xlink:href="#z" transform="matrix(1,0,0,1,2633.582507091516,934.0000000000001) translate(0.7407407407407476 17.77777777777778)"/><use xlink:href="#p" transform="matrix(1,0,0,1,2633.582507091516,934.0000000000001) translate(56.17283950617284 17.77777777777778)"/><path d="M2377.92 231.87l1.12.07 1.3.14 1.28.2 1.3.24 1.28.3 1.3.36 1.32.43 1.34.5 1.36.58 1.4.66 1.42.74 1.47.85 1.53.97 1.58 1.1 1.66 1.25 1.73 1.43 1.8 1.64 1.94 1.9 2.06 2.2 2.2 2.55 2.38 3 2.58 3.56 2.83 4.27 3.12 5.17 3.5 6.37 3.94 7.97 4.53 10.2 5.28 13.4 6.34 18.28 7.88 26.24 10.47 41.1 16.7 79.8 58.96 317 10.47 41.1 7.88 26.23 6.33 18.27 5.3 13.4 4.53 10.2 3.95 7.98 3.5 6.36 3.12 5.18 2.83 4.26 2.6 3.56 2.37 3 2.2 2.56 2.06 2.2 1.93 1.9 1.8 1.63 1.74 1.43 1.65 1.26 1.57 1.1 1.52.96.74.43" stroke="#3a414a" stroke-width="3" stroke-linejoin="round" fill="none"/><path d="M2378 230.4l-.07 2.94-1.5-.03v-2.94z" stroke="#3a414a" stroke-width=".05" fill="#3a414a"/><path d="M2618.7 943.2l-14.54 3.7 4.05-14.44z" stroke="#3a414a" stroke-width="3" fill="#3a414a"/><path d="M2377.92 416.2h.27l1.74.1 1.72.2 1.7.25 1.7.32 1.7.4 1.72.48 1.7.56 1.74.65 1.76.74 1.8.83 1.8.95 1.88 1.08 1.93 1.23 1.98 1.38 2.08 1.57 2.16 1.8 2.26 2.03 2.4 2.34 2.53 2.7 2.7 3.14 2.9 3.66 3.15 4.33 3.43 5.16 3.77 6.26 4.2 7.66 4.77 9.6 5.5 12.37 6.48 16.45 8.04 23.18 10.87 36.26 22.35 88.93 35.03 143.45 10.88 36.25 8.03 23.18 6.5 16.48 5.48 12.35 4.76 9.6 4.2 7.68 3.78 6.25 3.43 5.17 3.14 4.32 2.9 3.67 2.7 3.14 2.53 2.7 2.4 2.35 2.25 2.03 2.16 1.8 2.07 1.56 2 1.38 1.93 1.22 1.88 1.08 1.83.96 1.8.84.27.12" stroke="#3a414a" stroke-width="3" stroke-linejoin="round" fill="none"/><path d="M2378 414.72l-.07 2.95-1.5-.03v-2.95z" stroke="#3a414a" stroke-width=".05" fill="#3a414a"/><path d="M2618.65 943.38l-14.27 4.64 3.12-14.68z" stroke="#3a414a" stroke-width="3" fill="#3a414a"/><path d="M2377.92 772.03l3.83.08 5.06.33 4.83.5 4.6.7 4.47.83 4.3 1.02 4.2 1.17 4.12 1.34 4.05 1.5 4 1.68 4 1.88 4 2.1 4.04 2.32 4.1 2.6 4.2 2.9 4.33 3.3 4.53 3.76 4.82 4.34 5.2 5.1 5.85 6.23 6.88 8 9.22 11.66 42.17 56.95 6.87 8 5.84 6.2 5.22 5.13 4.82 4.33 4.53 3.76 4.33 3.3 4.2 2.9 4.1 2.6 4.02 2.33 4 2.1 4 1.87 4 1.7 4.06 1.5 4.1 1.33 4.2 1.17 4.32 1.02 4.45.84 2.4.36" stroke="#3a414a" stroke-width="3" stroke-linejoin="round" fill="none"/><path d="M2378 770.56l-.07 2.95-1.5-.02v-2.96z" stroke="#3a414a" stroke-width=".05" fill="#3a414a"/><path d="M2618.6 943.78l-13.5 6.55 1.08-14.97z" stroke="#3a414a" stroke-width="3" fill="#3a414a"/><path d="M2377.92 944h226.17" stroke="#3a414a" stroke-width="3" stroke-linejoin="round" fill="none"/><path d="M2377.96 945.48h-1.54v-2.96h1.54z" stroke="#3a414a" stroke-width=".05" fill="#3a414a"/><path d="M2618.58 944l-13 7.5v-15z" stroke="#3a414a" stroke-width="3" fill="#3a414a"/><path d="M2377.92 587.7l1.1.02 2.56.16 2.5.26 2.45.37 2.43.47 2.4.56 2.4.67 2.38.77 2.4.9 2.4 1 2.42 1.15 2.47 1.3 2.5 1.44 2.57 1.63 2.64 1.82 2.72 2.07 2.82 2.33 2.94 2.65 3.1 3.02 3.25 3.47 3.46 4 3.7 4.7 4.02 5.53 4.4 6.63 4.88 8.08 5.55 10.12 6.5 13.15 8.1 18.24 11.66 29.63L2529 847.45l8.1 18.25 6.5 13.14 5.56 10.12 4.9 8.08 4.4 6.63 4 5.53 3.7 4.68 3.47 4 3.26 3.5 3.07 3 2.95 2.66 2.82 2.34 2.72 2.07 2.64 1.83 2.56 1.63 2.5 1.46 2.48 1.3 2.43 1.13 2.4 1 2.4.9 2.38.77.1.02" stroke="#3a414a" stroke-width="3" stroke-linejoin="round" fill="none"/><path d="M2378 586.22l-.07 2.95-1.5-.03v-2.95z" stroke="#3a414a" stroke-width=".05" fill="#3a414a"/><path d="M2618.6 943.57l-13.92 5.55 2.16-14.84z" stroke="#3a414a" stroke-width="3" fill="#3a414a"/><path d="M2752.1 943.97l4.76-.1 6.03-.38 5.82-.62 5.64-.84 5.5-1.04 5.4-1.27 5.28-1.48 5.23-1.7 5.18-1.92 5.16-2.17 5.18-2.43 5.2-2.72 5.24-3.02 5.33-3.38 5.45-3.8 5.6-4.24 5.78-4.8 6.04-5.43 6.36-6.23 6.76-7.2 7.3-8.48 8.05-10.16 9.1-12.58 10.92-16.46 14.7-24.35 71.04-127.02 10.9-16.46 9.14-12.6 8.04-10.15 7.3-8.47 6.77-7.2 6.36-6.24 6.04-5.44 5.8-4.8 5.6-4.24 5.43-3.8 5.33-3.37 5.25-3.04 5.2-2.72 5.17-2.43 5.16-2.16 5.18-1.93 5.24-1.7 5.3-1.47 5.38-1.26 5.5-1.05 5.64-.83.7-.08" stroke="#3a414a" stroke-width="3" stroke-linejoin="round" fill="none"/><path d="M2752.16 945.44l-1.58.03v-2.95l1.52-.03z" stroke="#3a414a" stroke-width=".05" fill="#3a414a"/><path d="M3129 587.85l-12.5 8.26-.9-14.96z" stroke="#3a414a" stroke-width="3" fill="#3a414a"/><path d="M3428 533.67a6 6 0 0 1 6-6h148a6 6 0 0 1 6 6v108a6 6 0 0 1-6 6h-148a6 6 0 0 1-6-6z" stroke="#000" stroke-opacity="0" stroke-width="3" fill="#e08fff"/><g><use xlink:href="#A" transform="matrix(1,0,0,1,3440,539.6666666666861) translate(13.092592592592588 38.77777777777778)"/><use xlink:href="#B" transform="matrix(1,0,0,1,3440,539.6666666666861) translate(42.691358024691354 65.44444444444446)"/></g><path d="M3293.5 587.67h117" stroke="#3a414a" stroke-width="3" stroke-linejoin="round" fill="none"/><path d="M3293.54 589.14H3292v-2.95h1.54z" stroke="#3a414a" stroke-width=".05" fill="#3a414a"/><path d="M3425 587.67l-13 7.5v-15z" stroke="#3a414a" stroke-width="3" fill="#3a414a"/><defs><path fill="#333" d="M266 0h-40l-56-210L115 0H75L2-248h35L96-30l15-64 43-154h32l59 218 59-218h35" id="C"/><path fill="#333" d="M141-36C126-15 110 5 73 4 37 3 15-17 15-53c-1-64 63-63 125-63 3-35-9-54-41-54-24 1-41 7-42 31l-33-3c5-37 33-52 76-52 45 0 72 20 72 64v82c-1 20 7 32 28 27v20c-31 9-61-2-59-35zM48-53c0 20 12 33 32 33 41-3 63-29 60-74-43 2-92-5-92 41" id="D"/><path fill="#333" d="M108 0H70L1-190h34L89-25l56-165h34" id="E"/><path fill="#333" d="M100-194c63 0 86 42 84 106H49c0 40 14 67 53 68 26 1 43-12 49-29l28 8c-11 28-37 45-77 45C44 4 14-33 15-96c1-61 26-98 85-98zm52 81c6-60-76-77-97-28-3 7-6 17-6 28h103" id="F"/><g id="a"><use transform="matrix(0.06172839506172839,0,0,0.06172839506172839,0,0)" xlink:href="#C"/><use transform="matrix(0.06172839506172839,0,0,0.06172839506172839,20.123456790123456,0)" xlink:href="#D"/><use transform="matrix(0.06172839506172839,0,0,0.06172839506172839,32.46913580246913,0)" xlink:href="#E"/><use transform="matrix(0.06172839506172839,0,0,0.06172839506172839,43.58024691358024,0)" xlink:href="#F"/></g><path fill="#333" d="M185-189c-5-48-123-54-124 2 14 75 158 14 163 119 3 78-121 87-175 55-17-10-28-26-33-46l33-7c5 56 141 63 141-1 0-78-155-14-162-118-5-82 145-84 179-34 5 7 8 16 11 25" id="G"/><path fill="#333" d="M100-194c62-1 85 37 85 99 1 63-27 99-86 99S16-35 15-95c0-66 28-99 85-99zM99-20c44 1 53-31 53-75 0-43-8-75-51-75s-53 32-53 75 10 74 51 75" id="H"/><path fill="#333" d="M84 4C-5 8 30-112 23-190h32v120c0 31 7 50 39 49 72-2 45-101 50-169h31l1 190h-30c-1-10 1-25-2-33-11 22-28 36-60 37" id="I"/><path fill="#333" d="M114-163C36-179 61-72 57 0H25l-1-190h30c1 12-1 29 2 39 6-27 23-49 58-41v29" id="J"/><path fill="#333" d="M96-169c-40 0-48 33-48 73s9 75 48 75c24 0 41-14 43-38l32 2c-6 37-31 61-74 61-59 0-76-41-82-99-10-93 101-131 147-64 4 7 5 14 7 22l-32 3c-4-21-16-35-41-35" id="K"/><g id="b"><use transform="matrix(0.06172839506172839,0,0,0.06172839506172839,0,0)" xlink:href="#G"/><use transform="matrix(0.06172839506172839,0,0,0.06172839506172839,14.814814814814813,0)" xlink:href="#H"/><use transform="matrix(0.06172839506172839,0,0,0.06172839506172839,27.160493827160494,0)" xlink:href="#I"/><use transform="matrix(0.06172839506172839,0,0,0.06172839506172839,39.50617283950617,0)" xlink:href="#J"/><use transform="matrix(0.06172839506172839,0,0,0.06172839506172839,46.85185185185185,0)" xlink:href="#K"/><use transform="matrix(0.06172839506172839,0,0,0.06172839506172839,57.96296296296296,0)" xlink:href="#F"/></g><path fill="#333" d="M212-179c-10-28-35-45-73-45-59 0-87 40-87 99 0 60 29 101 89 101 43 0 62-24 78-52l27 14C228-24 195 4 139 4 59 4 22-46 18-125c-6-104 99-153 187-111 19 9 31 26 39 46" id="L"/><path fill="#333" d="M85-194c31 0 48 13 60 33l-1-100h32l1 261h-30c-2-10 0-23-3-31C134-8 116 4 85 4 32 4 16-35 15-94c0-66 23-100 70-100zm9 24c-40 0-46 34-46 75 0 40 6 74 45 74 42 0 51-32 51-76 0-42-9-74-50-73" id="M"/><g id="c"><use transform="matrix(0.06172839506172839,0,0,0.06172839506172839,0,0)" xlink:href="#L"/><use transform="matrix(0.06172839506172839,0,0,0.06172839506172839,15.987654320987653,0)" xlink:href="#H"/><use transform="matrix(0.06172839506172839,0,0,0.06172839506172839,28.333333333333332,0)" xlink:href="#M"/><use transform="matrix(0.06172839506172839,0,0,0.06172839506172839,40.67901234567901,0)" xlink:href="#F"/></g><path fill="#333" d="M80-196l47-18 7 23-49 13 32 44-20 13-27-46-27 45-21-12 33-44-49-13 8-23 47 19-2-53h23" id="N"/><path fill="#333" d="M33 0v-38h34V0H33" id="O"/><path fill="#333" d="M206 0h-36l-40-164L89 0H53L-1-190h32L70-26l43-164h34l41 164 42-164h31" id="P"/><g id="d"><use transform="matrix(0.06172839506172839,0,0,0.06172839506172839,0,0)" xlink:href="#N"/><use transform="matrix(0.06172839506172839,0,0,0.06172839506172839,8.641975308641975,0)" xlink:href="#O"/><use transform="matrix(0.06172839506172839,0,0,0.06172839506172839,14.814814814814813,0)" xlink:href="#P"/><use transform="matrix(0.06172839506172839,0,0,0.06172839506172839,30.80246913580247,0)" xlink:href="#D"/><use transform="matrix(0.06172839506172839,0,0,0.06172839506172839,43.148148148148145,0)" xlink:href="#E"/><use transform="matrix(0.06172839506172839,0,0,0.06172839506172839,54.25925925925925,0)" xlink:href="#F"/></g><path fill="#333" d="M33 0v-248h34V0H33" id="Q"/><path fill="#333" d="M233-177c-1 41-23 64-60 70L243 0h-38l-65-103H63V0H30v-248c88 3 205-21 203 71zM63-129c60-2 137 13 137-47 0-61-80-42-137-45v92" id="R"/><g id="e"><use transform="matrix(0.06172839506172839,0,0,0.06172839506172839,0,0)" xlink:href="#Q"/><use transform="matrix(0.06172839506172839,0,0,0.06172839506172839,6.172839506172839,0)" xlink:href="#R"/></g><path fill="#333" d="M143 4C61 4 22-44 18-125c-5-107 100-154 193-111 17 8 29 25 37 43l-32 9c-13-25-37-40-76-40-61 0-88 39-88 99 0 61 29 100 91 101 35 0 62-11 79-27v-45h-74v-28h105v86C228-13 192 4 143 4" id="S"/><path fill="#333" d="M117-194c89-4 53 116 60 194h-32v-121c0-31-8-49-39-48C34-167 62-67 57 0H25l-1-190h30c1 10-1 24 2 32 11-22 29-35 61-36" id="T"/><path fill="#333" d="M59-47c-2 24 18 29 38 22v24C64 9 27 4 27-40v-127H5v-23h24l9-43h21v43h35v23H59v120" id="U"/><g id="f"><use transform="matrix(0.06172839506172839,0,0,0.06172839506172839,0,0)" xlink:href="#S"/><use transform="matrix(0.06172839506172839,0,0,0.06172839506172839,17.28395061728395,0)" xlink:href="#F"/><use transform="matrix(0.06172839506172839,0,0,0.06172839506172839,29.629629629629626,0)" xlink:href="#T"/><use transform="matrix(0.06172839506172839,0,0,0.06172839506172839,41.9753086419753,0)" xlink:href="#F"/><use transform="matrix(0.06172839506172839,0,0,0.06172839506172839,54.32098765432098,0)" xlink:href="#J"/><use transform="matrix(0.06172839506172839,0,0,0.06172839506172839,61.66666666666666,0)" xlink:href="#D"/><use transform="matrix(0.06172839506172839,0,0,0.06172839506172839,74.01234567901234,0)" xlink:href="#U"/><use transform="matrix(0.06172839506172839,0,0,0.06172839506172839,80.18518518518518,0)" xlink:href="#H"/><use transform="matrix(0.06172839506172839,0,0,0.06172839506172839,92.53086419753086,0)" xlink:href="#J"/></g><g id="g"><use transform="matrix(0.06172839506172839,0,0,0.06172839506172839,0,0)" xlink:href="#C"/><use transform="matrix(0.06172839506172839,0,0,0.06172839506172839,20.123456790123456,0)" xlink:href="#D"/><use transform="matrix(0.06172839506172839,0,0,0.06172839506172839,32.46913580246913,0)" xlink:href="#E"/><use transform="matrix(0.06172839506172839,0,0,0.06172839506172839,43.58024691358024,0)" xlink:href="#F"/></g><g id="h"><use transform="matrix(0.06172839506172839,0,0,0.06172839506172839,0,0)" xlink:href="#Q"/><use transform="matrix(0.06172839506172839,0,0,0.06172839506172839,6.172839506172839,0)" xlink:href="#R"/></g><path fill="#333" d="M30 0v-248h33v221h125V0H30" id="V"/><path fill="#333" d="M24-231v-30h32v30H24zM24 0v-190h32V0H24" id="W"/><path fill="#333" d="M141 0L90-78 38 0H4l68-98-65-92h35l48 74 47-74h35l-64 92 68 98h-35" id="X"/><g id="i"><use transform="matrix(0.06172839506172839,0,0,0.06172839506172839,0,0)" xlink:href="#V"/><use transform="matrix(0.06172839506172839,0,0,0.06172839506172839,12.345679012345679,0)" xlink:href="#W"/><use transform="matrix(0.06172839506172839,0,0,0.06172839506172839,17.22222222222222,0)" xlink:href="#T"/><use transform="matrix(0.06172839506172839,0,0,0.06172839506172839,29.5679012345679,0)" xlink:href="#I"/><use transform="matrix(0.06172839506172839,0,0,0.06172839506172839,41.913580246913575,0)" xlink:href="#X"/></g><path fill="#333" d="M160-131c35 5 61 23 61 61C221 17 115-2 30 0v-248c76 3 177-17 177 60 0 33-19 50-47 57zm-97-11c50-1 110 9 110-42 0-47-63-36-110-37v79zm0 115c55-2 124 14 124-45 0-56-70-42-124-44v89" id="Y"/><path fill="#333" d="M143 0L79-87 56-68V0H24v-261h32v163l83-92h37l-77 82L181 0h-38" id="Z"/><g id="j"><use transform="matrix(0.06172839506172839,0,0,0.06172839506172839,0,0)" xlink:href="#Y"/><use transform="matrix(0.06172839506172839,0,0,0.06172839506172839,14.814814814814813,0)" xlink:href="#D"/><use transform="matrix(0.06172839506172839,0,0,0.06172839506172839,27.160493827160494,0)" xlink:href="#K"/><use transform="matrix(0.06172839506172839,0,0,0.06172839506172839,38.27160493827161,0)" xlink:href="#Z"/><use transform="matrix(0.06172839506172839,0,0,0.06172839506172839,49.38271604938272,0)" xlink:href="#F"/><use transform="matrix(0.06172839506172839,0,0,0.06172839506172839,61.7283950617284,0)" xlink:href="#T"/><use transform="matrix(0.06172839506172839,0,0,0.06172839506172839,74.07407407407408,0)" xlink:href="#M"/></g><path fill="#333" d="M232-93c-1 65-40 97-104 97C67 4 28-28 28-90v-158h33c8 89-33 224 67 224 102 0 64-133 71-224h33v155" id="aa"/><path fill="#333" d="M190 0L58-211 59 0H30v-248h39L202-35l-2-213h31V0h-41" id="ab"/><path fill="#333" d="M195 0l-74-108L45 0H8l94-129-87-119h37l69 98 67-98h37l-84 118L233 0h-38" id="ac"/><g id="k"><use transform="matrix(0.06172839506172839,0,0,0.06172839506172839,0,0)" xlink:href="#aa"/><use transform="matrix(0.06172839506172839,0,0,0.06172839506172839,15.987654320987653,0)" xlink:href="#ab"/><use transform="matrix(0.06172839506172839,0,0,0.06172839506172839,31.975308641975307,0)" xlink:href="#Q"/><use transform="matrix(0.06172839506172839,0,0,0.06172839506172839,38.148148148148145,0)" xlink:href="#ac"/></g><path fill="#333" d="M127-220V0H93v-220H8v-28h204v28h-85" id="ad"/><g id="l"><use transform="matrix(0.06172839506172839,0,0,0.06172839506172839,0,0)" xlink:href="#ab"/><use transform="matrix(0.06172839506172839,0,0,0.06172839506172839,15.987654320987653,0)" xlink:href="#ad"/></g><path fill="#333" d="M30-248c118-7 216 8 213 122C240-48 200 0 122 0H30v-248zM63-27c89 8 146-16 146-99s-60-101-146-95v194" id="ae"/><g id="m"><use transform="matrix(0.06172839506172839,0,0,0.06172839506172839,0,0)" xlink:href="#ae"/><use transform="matrix(0.06172839506172839,0,0,0.06172839506172839,15.987654320987653,0)" xlink:href="#D"/><use transform="matrix(0.06172839506172839,0,0,0.06172839506172839,28.333333333333332,0)" xlink:href="#J"/><use transform="matrix(0.06172839506172839,0,0,0.06172839506172839,35.67901234567901,0)" xlink:href="#P"/><use transform="matrix(0.06172839506172839,0,0,0.06172839506172839,51.666666666666664,0)" xlink:href="#W"/><use transform="matrix(0.06172839506172839,0,0,0.06172839506172839,56.54320987654321,0)" xlink:href="#T"/></g><path fill="#333" d="M209 0H11v-25l151-195H24v-28h176v25L50-27h159V0" id="af"/><g id="n"><use transform="matrix(0.06172839506172839,0,0,0.06172839506172839,0,0)" xlink:href="#af"/><use transform="matrix(0.06172839506172839,0,0,0.06172839506172839,13.518518518518517,0)" xlink:href="#W"/><use transform="matrix(0.06172839506172839,0,0,0.06172839506172839,18.39506172839506,0)" xlink:href="#J"/><use transform="matrix(0.06172839506172839,0,0,0.06172839506172839,25.74074074074074,0)" xlink:href="#K"/><use transform="matrix(0.06172839506172839,0,0,0.06172839506172839,36.85185185185185,0)" xlink:href="#H"/><use transform="matrix(0.06172839506172839,0,0,0.06172839506172839,49.197530864197525,0)" xlink:href="#T"/></g><path fill="#333" d="M134-131c28 9 52 24 51 62-1 50-34 73-85 73S17-19 16-69c0-36 21-54 49-61-75-25-45-126 34-121 46 3 78 18 79 63 0 33-17 51-44 57zm-34-11c31 1 46-15 46-44 0-28-17-43-47-42-29 0-46 13-45 42 1 28 16 44 46 44zm1 122c35 0 51-18 51-52 0-30-18-46-53-46-33 0-51 17-51 47 0 34 19 51 53 51" id="ag"/><path fill="#333" d="M110-160c48 1 74 30 74 79 0 53-28 85-80 85-65 0-83-55-86-122-5-90 50-162 133-122 14 7 22 21 27 39l-31 6c-5-40-67-38-82-6-9 19-15 44-15 74 11-20 30-34 60-33zm-7 138c34 0 49-23 49-58s-16-56-50-56c-29 0-50 16-49 49 1 36 15 65 50 65" id="ah"/><g id="o"><use transform="matrix(0.06172839506172839,0,0,0.06172839506172839,0,0)" xlink:href="#X"/><use transform="matrix(0.06172839506172839,0,0,0.06172839506172839,11.11111111111111,0)" xlink:href="#ag"/><use transform="matrix(0.06172839506172839,0,0,0.06172839506172839,23.45679012345679,0)" xlink:href="#ah"/></g><path fill="#333" d="M205 0l-28-72H64L36 0H1l101-248h38L239 0h-34zm-38-99l-47-123c-12 45-31 82-46 123h93" id="ai"/><path fill="#333" d="M240 0l2-218c-23 76-54 145-80 218h-23L58-218 59 0H30v-248h44l77 211c21-75 51-140 76-211h43V0h-30" id="aj"/><g id="p"><use transform="matrix(0.06172839506172839,0,0,0.06172839506172839,0,0)" xlink:href="#ai"/><use transform="matrix(0.06172839506172839,0,0,0.06172839506172839,14.814814814814813,0)" xlink:href="#G"/><use transform="matrix(0.06172839506172839,0,0,0.06172839506172839,29.629629629629626,0)" xlink:href="#aj"/></g><path fill="#333" d="M106-169C34-169 62-67 57 0H25v-261h32l-1 103c12-21 28-36 61-36 89 0 53 116 60 194h-32v-121c2-32-8-49-39-48" id="ak"/><g id="q"><use transform="matrix(0.06172839506172839,0,0,0.06172839506172839,0,0)" xlink:href="#aj"/><use transform="matrix(0.06172839506172839,0,0,0.06172839506172839,18.456790123456788,0)" xlink:href="#D"/><use transform="matrix(0.06172839506172839,0,0,0.06172839506172839,30.80246913580247,0)" xlink:href="#K"/><use transform="matrix(0.06172839506172839,0,0,0.06172839506172839,41.91358024691358,0)" xlink:href="#ak"/><use transform="matrix(0.06172839506172839,0,0,0.06172839506172839,54.25925925925926,0)" xlink:href="#W"/><use transform="matrix(0.06172839506172839,0,0,0.06172839506172839,59.135802469135804,0)" xlink:href="#T"/><use transform="matrix(0.06172839506172839,0,0,0.06172839506172839,71.48148148148148,0)" xlink:href="#F"/></g><g id="r"><use transform="matrix(0.06172839506172839,0,0,0.06172839506172839,0,0)" xlink:href="#L"/><use transform="matrix(0.06172839506172839,0,0,0.06172839506172839,15.987654320987653,0)" xlink:href="#H"/><use transform="matrix(0.06172839506172839,0,0,0.06172839506172839,28.333333333333332,0)" xlink:href="#M"/><use transform="matrix(0.06172839506172839,0,0,0.06172839506172839,40.67901234567901,0)" xlink:href="#F"/></g><g id="s"><use transform="matrix(0.06172839506172839,0,0,0.06172839506172839,0,0)" xlink:href="#S"/><use transform="matrix(0.06172839506172839,0,0,0.06172839506172839,17.28395061728395,0)" xlink:href="#F"/><use transform="matrix(0.06172839506172839,0,0,0.06172839506172839,29.629629629629626,0)" xlink:href="#T"/><use transform="matrix(0.06172839506172839,0,0,0.06172839506172839,41.9753086419753,0)" xlink:href="#F"/><use transform="matrix(0.06172839506172839,0,0,0.06172839506172839,54.32098765432098,0)" xlink:href="#J"/><use transform="matrix(0.06172839506172839,0,0,0.06172839506172839,61.66666666666666,0)" xlink:href="#D"/><use transform="matrix(0.06172839506172839,0,0,0.06172839506172839,74.01234567901234,0)" xlink:href="#U"/><use transform="matrix(0.06172839506172839,0,0,0.06172839506172839,80.18518518518518,0)" xlink:href="#H"/><use transform="matrix(0.06172839506172839,0,0,0.06172839506172839,92.53086419753086,0)" xlink:href="#J"/></g><g id="t"><use transform="matrix(0.06172839506172839,0,0,0.06172839506172839,0,0)" xlink:href="#C"/><use transform="matrix(0.06172839506172839,0,0,0.06172839506172839,20.123456790123456,0)" xlink:href="#D"/><use transform="matrix(0.06172839506172839,0,0,0.06172839506172839,32.46913580246913,0)" xlink:href="#E"/><use transform="matrix(0.06172839506172839,0,0,0.06172839506172839,43.58024691358024,0)" xlink:href="#F"/></g><path fill="#333" d="M210-169c-67 3-38 105-44 169h-31v-121c0-29-5-50-35-48C34-165 62-65 56 0H25l-1-190h30c1 10-1 24 2 32 10-44 99-50 107 0 11-21 27-35 58-36 85-2 47 119 55 194h-31v-121c0-29-5-49-35-48" id="al"/><path fill="#333" d="M115-194c55 1 70 41 70 98S169 2 115 4C84 4 66-9 55-30l1 105H24l-1-265h31l2 30c10-21 28-34 59-34zm-8 174c40 0 45-34 45-75s-6-73-45-74c-42 0-51 32-51 76 0 43 10 73 51 73" id="am"/><path fill="#333" d="M24 0v-261h32V0H24" id="an"/><g id="u"><use transform="matrix(0.06172839506172839,0,0,0.06172839506172839,0,0)" xlink:href="#L"/><use transform="matrix(0.06172839506172839,0,0,0.06172839506172839,15.987654320987653,0)" xlink:href="#H"/><use transform="matrix(0.06172839506172839,0,0,0.06172839506172839,28.333333333333332,0)" xlink:href="#al"/><use transform="matrix(0.06172839506172839,0,0,0.06172839506172839,46.79012345679012,0)" xlink:href="#am"/><use transform="matrix(0.06172839506172839,0,0,0.06172839506172839,59.1358024691358,0)" xlink:href="#W"/><use transform="matrix(0.06172839506172839,0,0,0.06172839506172839,64.01234567901234,0)" xlink:href="#an"/><use transform="matrix(0.06172839506172839,0,0,0.06172839506172839,68.88888888888889,0)" xlink:href="#F"/><use transform="matrix(0.06172839506172839,0,0,0.06172839506172839,81.23456790123457,0)" xlink:href="#J"/></g><path fill="#333" d="M63-220v92h138v28H63V0H30v-248h175v28H63" id="ao"/><g id="v"><use transform="matrix(0.06172839506172839,0,0,0.06172839506172839,0,0)" xlink:href="#ao"/><use transform="matrix(0.06172839506172839,0,0,0.06172839506172839,13.518518518518517,0)" xlink:href="#J"/><use transform="matrix(0.06172839506172839,0,0,0.06172839506172839,20.864197530864196,0)" xlink:href="#H"/><use transform="matrix(0.06172839506172839,0,0,0.06172839506172839,33.20987654320987,0)" xlink:href="#T"/><use transform="matrix(0.06172839506172839,0,0,0.06172839506172839,45.55555555555555,0)" xlink:href="#U"/><use transform="matrix(0.06172839506172839,0,0,0.06172839506172839,51.72839506172839,0)" xlink:href="#F"/><use transform="matrix(0.06172839506172839,0,0,0.06172839506172839,64.07407407407408,0)" xlink:href="#T"/><use transform="matrix(0.06172839506172839,0,0,0.06172839506172839,76.41975308641976,0)" xlink:href="#M"/></g><path fill="#333" d="M30-248c87 1 191-15 191 75 0 78-77 80-158 76V0H30v-248zm33 125c57 0 124 11 124-50 0-59-68-47-124-48v98" id="ap"/><path fill="#333" d="M135-143c-3-34-86-38-87 0 15 53 115 12 119 90S17 21 10-45l28-5c4 36 97 45 98 0-10-56-113-15-118-90-4-57 82-63 122-42 12 7 21 19 24 35" id="aq"/><path fill="#333" d="M177-190C167-65 218 103 67 71c-23-6-38-20-44-43l32-5c15 47 100 32 89-28v-30C133-14 115 1 83 1 29 1 15-40 15-95c0-56 16-97 71-98 29-1 48 16 59 35 1-10 0-23 2-32h30zM94-22c36 0 50-32 50-73 0-42-14-75-50-75-39 0-46 34-46 75s6 73 46 73" id="ar"/><g id="w"><use transform="matrix(0.06172839506172839,0,0,0.06172839506172839,0,0)" xlink:href="#ap"/><use transform="matrix(0.06172839506172839,0,0,0.06172839506172839,14.814814814814813,0)" xlink:href="#D"/><use transform="matrix(0.06172839506172839,0,0,0.06172839506172839,27.160493827160494,0)" xlink:href="#J"/><use transform="matrix(0.06172839506172839,0,0,0.06172839506172839,34.50617283950617,0)" xlink:href="#aq"/><use transform="matrix(0.06172839506172839,0,0,0.06172839506172839,45.61728395061728,0)" xlink:href="#W"/><use transform="matrix(0.06172839506172839,0,0,0.06172839506172839,50.49382716049382,0)" xlink:href="#T"/><use transform="matrix(0.06172839506172839,0,0,0.06172839506172839,62.8395061728395,0)" xlink:href="#ar"/></g><path fill="#333" d="M234-2c-28 10-62 0-77-18C117 19 8 12 13-65c3-43 29-61 60-76-25-40-17-114 47-108 35 3 59 15 59 50 0 44-40 53-71 69 14 26 32 50 51 72 14-21 24-43 30-72l26 8c-9 33-21 57-38 82 13 13 33 22 57 15v23zM97-151c25-10 52-18 56-48-1-18-13-29-33-29-42 0-39 50-23 77zM42-66c-3 51 71 58 98 28-20-24-41-51-56-80-23 10-40 24-42 52" id="as"/><use transform="matrix(0.06172839506172839,0,0,0.06172839506172839,0,0)" xlink:href="#as" id="x"/><path fill="#333" d="M179-190L93 31C79 59 56 82 12 73V49c39 6 53-20 64-50L1-190h34L92-34l54-156h33" id="at"/><g id="y"><use transform="matrix(0.06172839506172839,0,0,0.06172839506172839,0,0)" xlink:href="#ai"/><use transform="matrix(0.06172839506172839,0,0,0.06172839506172839,14.814814814814813,0)" xlink:href="#T"/><use transform="matrix(0.06172839506172839,0,0,0.06172839506172839,27.160493827160494,0)" xlink:href="#D"/><use transform="matrix(0.06172839506172839,0,0,0.06172839506172839,39.50617283950617,0)" xlink:href="#an"/><use transform="matrix(0.06172839506172839,0,0,0.06172839506172839,44.382716049382715,0)" xlink:href="#at"/><use transform="matrix(0.06172839506172839,0,0,0.06172839506172839,55.49382716049382,0)" xlink:href="#aq"/><use transform="matrix(0.06172839506172839,0,0,0.06172839506172839,66.60493827160494,0)" xlink:href="#W"/><use transform="matrix(0.06172839506172839,0,0,0.06172839506172839,71.48148148148148,0)" xlink:href="#aq"/></g><g id="z"><use transform="matrix(0.06172839506172839,0,0,0.06172839506172839,0,0)" xlink:href="#ai"/><use transform="matrix(0.06172839506172839,0,0,0.06172839506172839,14.814814814814813,0)" xlink:href="#R"/><use transform="matrix(0.06172839506172839,0,0,0.06172839506172839,30.80246913580247,0)" xlink:href="#aj"/></g><path fill="#333" d="M30 0v-248h187v28H63v79h144v27H63v87h162V0H30" id="au"/><path fill="#333" d="M115-194c53 0 69 39 70 98 0 66-23 100-70 100C84 3 66-7 56-30L54 0H23l1-261h32v101c10-23 28-34 59-34zm-8 174c40 0 45-34 45-75 0-40-5-75-45-74-42 0-51 32-51 76 0 43 10 73 51 73" id="av"/><g id="A"><use transform="matrix(0.06172839506172839,0,0,0.06172839506172839,0,0)" xlink:href="#au"/><use transform="matrix(0.06172839506172839,0,0,0.06172839506172839,14.814814814814813,0)" xlink:href="#X"/><use transform="matrix(0.06172839506172839,0,0,0.06172839506172839,25.925925925925924,0)" xlink:href="#F"/><use transform="matrix(0.06172839506172839,0,0,0.06172839506172839,38.2716049382716,0)" xlink:href="#K"/><use transform="matrix(0.06172839506172839,0,0,0.06172839506172839,49.38271604938271,0)" xlink:href="#I"/><use transform="matrix(0.06172839506172839,0,0,0.06172839506172839,61.728395061728385,0)" xlink:href="#U"/><use transform="matrix(0.06172839506172839,0,0,0.06172839506172839,67.90123456790123,0)" xlink:href="#D"/><use transform="matrix(0.06172839506172839,0,0,0.06172839506172839,80.24691358024691,0)" xlink:href="#av"/><use transform="matrix(0.06172839506172839,0,0,0.06172839506172839,92.5925925925926,0)" xlink:href="#an"/><use transform="matrix(0.06172839506172839,0,0,0.06172839506172839,97.46913580246914,0)" xlink:href="#F"/></g><g id="B"><use transform="matrix(0.06172839506172839,0,0,0.06172839506172839,0,0)" xlink:href="#N"/><use transform="matrix(0.06172839506172839,0,0,0.06172839506172839,8.641975308641975,0)" xlink:href="#O"/><use transform="matrix(0.06172839506172839,0,0,0.06172839506172839,14.814814814814813,0)" xlink:href="#F"/><use transform="matrix(0.06172839506172839,0,0,0.06172839506172839,27.160493827160494,0)" xlink:href="#X"/><use transform="matrix(0.06172839506172839,0,0,0.06172839506172839,38.27160493827161,0)" xlink:href="#F"/></g></defs></g></svg>