<svg xmlns="http://www.w3.org/2000/svg" xmlns:xlink="http://www.w3.org/1999/xlink" xmlns:lucid="lucid" width="2236.92" height="875.17"><g transform="translate(-1385.9158404249272 -150.33333333334315)" lucid:page-tab-id="0_0"><path d="M1407.42 533.67a6 6 0 0 1 6-6h210.66a6 6 0 0 1 6 6v108a6 6 0 0 1-6 6h-210.66a6 6 0 0 1-6-6z" stroke="#000" stroke-opacity="0" stroke-width="3" fill="#9391ff"/><use xlink:href="#a" transform="matrix(1,0,0,1,1419.4158404249272,539.6666666666861) translate(3.6975308641975317 38.77777777777778)"/><use xlink:href="#b" transform="matrix(1,0,0,1,1419.4158404249272,539.6666666666861) translate(65.79629629629629 38.77777777777778)"/><use xlink:href="#c" transform="matrix(1,0,0,1,1419.4158404249272,539.6666666666861) translate(142.27777777777777 38.77777777777778)"/><use xlink:href="#d" transform="matrix(1,0,0,1,1419.4158404249272,539.6666666666861) translate(66.19753086419753 65.44444444444446)"/><path d="M1843.25 533.67a6 6 0 0 1 6-6h148a6 6 0 0 1 6 6v108a6 6 0 0 1-6 6h-148a6 6 0 0 1-6-6z" stroke="#000" stroke-opacity="0" stroke-width="3" fill="#fc9432"/><use xlink:href="#e" transform="matrix(1,0,0,1,1855.2491737582604,539.6666666666861) translate(23.709876543209873 53.77777777777778)"/><path d="M2216.42 567.67a40 40 0 0 1 40-40h80a40 40 0 0 1 40 40v40a40 40 0 0 1-40 40h-80a40 40 0 0 1-40-40z" stroke="#000" stroke-opacity="0" stroke-width="3" fill="#a7a6ff"/><use xlink:href="#f" transform="matrix(1,0,0,1,2228.4158404248883,539.6666666666861) translate(41.48765432098766 53.77777777777778)"/><path d="M1631.6 587.67h194.16" stroke="#3a414a" stroke-width="3" stroke-linejoin="round" fill="none"/><path d="M1631.62 589.14h-1.54v-2.95h1.54z" stroke="#3a414a" stroke-width=".05" fill="#3a414a"/><path d="M1840.25 587.67l-13 7.5v-15z" stroke="#3a414a" stroke-width="3" fill="#3a414a"/><path d="M2004.75 587.67h194.18" stroke="#3a414a" stroke-width="3" stroke-linejoin="round" fill="none"/><path d="M2004.8 589.14h-1.55v-2.95h1.54z" stroke="#3a414a" stroke-width=".05" fill="#3a414a"/><path d="M2213.42 587.67l-13 7.5v-15z" stroke="#3a414a" stroke-width="3" fill="#3a414a"/><path d="M2216.42 752a40 40 0 0 1 40-40h80a40 40 0 0 1 40 40v40a40 40 0 0 1-40 40h-80a40 40 0 0 1-40-40z" stroke="#000" stroke-opacity="0" stroke-width="3" fill="#a7a6ff"/><use xlink:href="#g" transform="matrix(1,0,0,1,2228.4158404248883,724) translate(41.51851851851852 53.77777777777778)"/><path d="M2216.42 211.83a40 40 0 0 1 40-40h80a40 40 0 0 1 40 40v40a40 40 0 0 1-40 40h-80a40 40 0 0 1-40-40z" stroke="#000" stroke-opacity="0" stroke-width="3" fill="#a7a6ff"/><use xlink:href="#h" transform="matrix(1,0,0,1,2228.4158404248883,183.83333333334315) translate(53.24691358024691 53.77777777777778)"/><path d="M2216.42 396.17a40 40 0 0 1 40-40h80a40 40 0 0 1 40 40v40a40 40 0 0 1-40 40h-80a40 40 0 0 1-40-40z" stroke="#000" stroke-opacity="0" stroke-width="3" fill="#a7a6ff"/><use xlink:href="#i" transform="matrix(1,0,0,1,2228.4158404248883,368.1666666666571) translate(33.55555555555556 53.77777777777778)"/><path d="M2216.42 924a40 40 0 0 1 40-40h80a40 40 0 0 1 40 40v40a40 40 0 0 1-40 40h-80a40 40 0 0 1-40-40z" stroke="#000" stroke-opacity="0" stroke-width="3" fill="#a7a6ff"/><use xlink:href="#j" transform="matrix(1,0,0,1,2228.4158404248883,896.0000000000001) translate(37.2283950617284 53.77777777777778)"/><path d="M2004.75 587.7l2.3.04 3.6.23 3.5.37 3.37.5 3.27.62 3.2.75 3.13.9 3.08 1 3.07 1.13 3.04 1.28 3.05 1.44 3.05 1.6 3.08 1.77 3.13 2 3.2 2.22 3.28 2.5 3.4 2.8 3.55 3.2 3.76 3.68 4 4.3 4.4 5.08 4.92 6.2 5.77 7.97 7.43 11.24 42.45 69.92 5.77 7.96 4.92 6.2 4.38 5.1 4.03 4.28 3.75 3.68 3.55 3.2 3.4 2.82 3.28 2.5 3.2 2.2 3.12 2 3.08 1.77 3.05 1.6 3.05 1.43 3.04 1.28 3.05 1.13 3.1 1 3.13.88 3.2.75.16.04" stroke="#3a414a" stroke-width="3" stroke-linejoin="round" fill="none"/><path d="M2004.82 586.22l-.06 2.95-1.5-.03v-2.95z" stroke="#3a414a" stroke-width=".05" fill="#3a414a"/><path d="M2213.43 771.7l-13.68 6.15 1.5-14.93z" stroke="#3a414a" stroke-width="3" fill="#3a414a"/><path d="M2004.75 587.63l2.56-.05 3.88-.24 3.72-.4 3.58-.52 3.48-.66 3.38-.8 3.3-.92 3.26-1.06 3.2-1.2 3.2-1.33 3.2-1.5 3.18-1.67 3.22-1.86 3.27-2.08 3.34-2.32 3.45-2.6 3.56-2.96 3.75-3.37 3.98-3.9 4.3-4.6 4.75-5.5 5.48-6.94 6.83-9.42 11.04-16.74 27.43-42.9 6.83-9.43 5.48-6.93 4.76-5.52 4.3-4.58 3.97-3.9 3.75-3.37 3.57-2.95 3.44-2.6 3.34-2.33 3.26-2.08 3.22-1.87 3.2-1.67 3.18-1.5 3.2-1.33 3.2-1.2 3.26-1.06 3.3-.93 3.4-.8 1.3-.25" stroke="#3a414a" stroke-width="3" stroke-linejoin="round" fill="none"/><path d="M2004.82 589.1l-1.57.04v-2.95l1.5-.04z" stroke="#3a414a" stroke-width=".05" fill="#3a414a"/><path d="M2213.43 416.45l-12.22 8.7-1.4-14.93z" stroke="#3a414a" stroke-width="3" fill="#3a414a"/><path d="M2004.75 587.63h.48l1.94-.13 1.9-.2 1.9-.27 1.86-.36 1.85-.44 1.85-.5 1.85-.6 1.86-.7 1.88-.8 1.9-.9 1.93-1 1.98-1.14 2.02-1.3 2.1-1.45 2.14-1.63 2.23-1.86 2.34-2.1 2.46-2.42 2.6-2.77 2.76-3.2 2.95-3.74 3.2-4.4 3.5-5.26 3.84-6.38 4.32-7.9 4.96-10 5.88-13.26 7.4-18.76 10.86-31.42 43.5-137.44 7.38-18.76 5.88-13.25 4.97-10 4.32-7.9 3.86-6.37 3.5-5.26 3.18-4.4 2.97-3.74 2.77-3.2 2.6-2.77 2.45-2.4 2.33-2.12 2.24-1.86 2.16-1.63 2.1-1.45 2-1.3 1.98-1.13 1.95-1 1.9-.9 1.8-.76" stroke="#3a414a" stroke-width="3" stroke-linejoin="round" fill="none"/><path d="M2004.82 589.1l-1.57.04v-2.95l1.5-.04z" stroke="#3a414a" stroke-width=".05" fill="#3a414a"/><path d="M2213.47 232.4l-11.34 9.8-2.83-14.72z" stroke="#3a414a" stroke-width="3" fill="#3a414a"/><path d="M2004.75 587.7h.48l1.94.13 1.9.2 1.88.28 1.87.36 1.85.44 1.84.5 1.86.6 1.86.7 1.87.8 1.9.9 1.92 1 1.98 1.14 2.02 1.28 2.08 1.45 2.15 1.63 2.24 1.86 2.33 2.1 2.46 2.4 2.58 2.78 2.76 3.2 2.96 3.73 3.2 4.4 3.48 5.26 3.85 6.37 4.32 7.88 4.96 10 5.88 13.23 7.4 18.73 10.8 31.27 43.72 138.33 7.38 18.73 5.87 13.22 4.96 10 4.33 7.9 3.85 6.36 3.5 5.25 3.18 4.4 2.96 3.73 2.76 3.2 2.6 2.76 2.45 2.4 2.34 2.1 2.24 1.86 2.16 1.64 2.1 1.44 2 1.3 1.98 1.13 1.93 1 1.9.9 1.77.75" stroke="#3a414a" stroke-width="3" stroke-linejoin="round" fill="none"/><path d="M2004.82 586.22l-.06 2.95-1.5-.03v-2.95z" stroke="#3a414a" stroke-width=".05" fill="#3a414a"/><path d="M2213.47 943.43l-14.17 4.92 2.83-14.73z" stroke="#3a414a" stroke-width="3" fill="#3a414a"/><path d="M2621.58 362.17a6 6 0 0 1 6-6h148a6 6 0 0 1 6 6v108a6 6 0 0 1-6 6h-148a6 6 0 0 1-6-6z" stroke="#000" stroke-opacity="0" stroke-width="3" fill="#fc9432"/><use xlink:href="#k" transform="matrix(1,0,0,1,2633.582507091516,368.1666666666571) translate(22.96913580246914 53.77777777777778)"/><use xlink:href="#l" transform="matrix(1,0,0,1,2633.582507091516,368.1666666666571) translate(64.94444444444446 53.77777777777778)"/><path d="M2377.92 231.87l3.5.07 4.73.3 4.53.47 4.37.66 4.2.8 4.1.96 4 1.12 3.93 1.27 3.87 1.45 3.83 1.6 3.82 1.8 3.83 2 3.87 2.25 3.92 2.48 4 2.8 4.14 3.13 4.3 3.57 4.53 4.1 4.85 4.74 5.32 5.68 6.02 7 7.26 9.18 10.4 14.37 37.88 55.1 7.27 9.2 6.03 7 5.32 5.66 4.85 4.74 4.54 4.1 4.3 3.55 4.13 3.13 4 2.8 3.93 2.47 3.86 2.24 3.84 2 3.82 1.8 3.83 1.6 3.87 1.45 3.92 1.26 4 1.12 4.1.96 4.2.8 1.22.18" stroke="#3a414a" stroke-width="3" stroke-linejoin="round" fill="none"/><path d="M2378 230.4l-.07 2.94-1.5-.03v-2.94z" stroke="#3a414a" stroke-width=".05" fill="#3a414a"/><path d="M2618.6 415.94l-13.54 6.48 1.16-14.96z" stroke="#3a414a" stroke-width="3" fill="#3a414a"/><path d="M2377.92 416.17h226.17" stroke="#3a414a" stroke-width="3" stroke-linejoin="round" fill="none"/><path d="M2377.96 417.64h-1.54v-2.95h1.54z" stroke="#3a414a" stroke-width=".05" fill="#3a414a"/><path d="M2618.58 416.17l-13 7.5v-15z" stroke="#3a414a" stroke-width="3" fill="#3a414a"/><path d="M2377.92 587.64l3.85-.08 5.07-.32 4.83-.5 4.63-.7 4.46-.84 4.32-1.02 4.2-1.17 4.13-1.33 4.07-1.5 4.02-1.7 4-1.88 4-2.1 4.03-2.34 4.1-2.6 4.2-2.93 4.35-3.3 4.54-3.76 4.83-4.35 5.23-5.13 5.86-6.25 6.93-8.04 9.34-11.82 41.53-55.95 6.93-8.04 5.85-6.26 5.25-5.13 4.83-4.34 4.54-3.76 4.34-3.3 4.2-2.92 4.1-2.6 4.05-2.34 4-2.1 4-1.88 4.03-1.7 4.06-1.5 4.1-1.33 4.22-1.18 4.32-1 4.46-.86 2.45-.38" stroke="#3a414a" stroke-width="3" stroke-linejoin="round" fill="none"/><path d="M2378 589.1l-1.58.04v-2.95l1.5-.04z" stroke="#3a414a" stroke-width=".05" fill="#3a414a"/><path d="M2618.6 416.38l-12.43 8.42-1.08-14.96z" stroke="#3a414a" stroke-width="3" fill="#3a414a"/><path d="M2377.92 771.97l1.12-.02 2.55-.17 2.5-.26 2.45-.36 2.43-.46 2.4-.57 2.4-.67 2.38-.77 2.4-.9 2.4-1.02 2.43-1.14 2.46-1.3 2.5-1.44 2.58-1.63 2.64-1.84 2.72-2.07 2.83-2.34 2.94-2.65 3.1-3.03 3.25-3.47 3.47-4.02 3.7-4.7 4.02-5.52 4.4-6.63 4.9-8.1 5.55-10.12 6.52-13.17 8.1-18.28 11.7-29.77 48.1-132.7 8.1-18.3 6.53-13.16 5.56-10.14 4.88-8.1 4.4-6.62 4.02-5.54 3.7-4.7 3.48-4 3.26-3.48 3.08-3.02 2.95-2.66 2.82-2.34 2.72-2.06 2.64-1.84 2.57-1.63 2.5-1.45 2.47-1.3 2.44-1.14 2.4-1 2.4-.9 2.4-.78.1-.03" stroke="#3a414a" stroke-width="3" stroke-linejoin="round" fill="none"/><path d="M2378 773.44l-1.58.03v-2.95l1.5-.03z" stroke="#3a414a" stroke-width=".05" fill="#3a414a"/><path d="M2618.6 416.6l-11.76 9.3-2.16-14.86z" stroke="#3a414a" stroke-width="3" fill="#3a414a"/><path d="M2377.92 943.97h.27l1.74-.12 1.72-.18 1.7-.25 1.7-.33 1.7-.4 1.72-.48 1.7-.56 1.74-.64 1.76-.74 1.8-.84 1.8-.96 1.88-1.08 1.93-1.22 1.98-1.4 2.08-1.56 2.16-1.8 2.26-2.03 2.4-2.36 2.53-2.7 2.7-3.13 2.9-3.66 3.15-4.32 3.43-5.17 3.77-6.24 4.2-7.66 4.77-9.6 5.5-12.36 6.48-16.47 8.04-23.17 10.87-36.25 22.35-88.95 35.03-143.44 10.88-36.27 8.03-23.18 6.5-16.46 5.48-12.37 4.76-9.6 4.2-7.67 3.78-6.25 3.43-5.15 3.14-4.33 2.9-3.66 2.7-3.14 2.53-2.7 2.4-2.34 2.25-2.04 2.16-1.8 2.07-1.56 2-1.4 1.93-1.22 1.88-1.08 1.83-.95 1.8-.84.27-.13" stroke="#3a414a" stroke-width="3" stroke-linejoin="round" fill="none"/><path d="M2378 945.44l-1.58.03v-2.95l1.5-.03z" stroke="#3a414a" stroke-width=".05" fill="#3a414a"/><path d="M2618.65 416.8l-11.15 10.02-3.12-14.67z" stroke="#3a414a" stroke-width="3" fill="#3a414a"/><path d="M2783.1 416.2l9.28.2 10 .62 9.33.98 8.8 1.3 8.32 1.58 7.95 1.86 7.66 2.14 7.43 2.42 7.28 2.7 7.17 3.02 7.16 3.36 7.2 3.77 7.35 4.25 7.65 4.84 8.1 5.65 8.94 6.78 10.48 8.7 14.57 13.15 52.65 49.94 10.5 8.7 8.92 6.78 8.12 5.64 7.63 4.84 7.35 4.25 7.2 3.75 7.15 3.37 7.18 3 7.27 2.72 7.43 2.4 7.66 2.15 7.97 1.86 8.32 1.58 8.78 1.3 9.33.98 3.33.2" stroke="#3a414a" stroke-width="3" stroke-linejoin="round" fill="none"/><path d="M2783.16 414.72l-.07 2.95-1.52-.03v-2.95z" stroke="#3a414a" stroke-width=".05" fill="#3a414a"/><path d="M3129 587.56l-13.26 7.02.56-15z" stroke="#3a414a" stroke-width="3" fill="#3a414a"/><path d="M3132 533.67a6 6 0 0 1 6-6h148a6 6 0 0 1 6 6v108a6 6 0 0 1-6 6h-148a6 6 0 0 1-6-6z" stroke="#000" stroke-opacity="0" stroke-width="3" fill="#fc9432"/><use xlink:href="#m" transform="matrix(1,0,0,1,3144.0000000000005,539.6666666666861) translate(52.598765432098766 53.77777777777778)"/><path d="M2621.58 718a6 6 0 0 1 6-6h148a6 6 0 0 1 6 6v108a6 6 0 0 1-6 6h-148a6 6 0 0 1-6-6z" stroke="#000" stroke-opacity="0" stroke-width="3" fill="#fc9432"/><use xlink:href="#n" transform="matrix(1,0,0,1,2633.582507091516,724) translate(20.561728395061735 53.77777777777778)"/><use xlink:href="#l" transform="matrix(1,0,0,1,2633.582507091516,724) translate(67.35185185185185 53.77777777777778)"/><path d="M2377.92 231.87h.23l1.7.1 1.7.18 1.67.25 1.66.32 1.67.4 1.67.46 1.68.54 1.7.63 1.72.73 1.75.83 1.8.94 1.83 1.06 1.9 1.2 1.96 1.37 2.03 1.55 2.12 1.76 2.23 2 2.35 2.3 2.5 2.67 2.66 3.1 2.86 3.6 3.1 4.26 3.37 5.1 3.7 6.16 4.16 7.56 4.7 9.46 5.4 12.17 6.37 16.16 7.86 22.67 10.46 34.93 18.74 74.18 42.33 177.05 10.48 34.93 7.87 22.66 6.38 16.17 5.4 12.15 4.7 9.47 4.14 7.56 3.7 6.15 3.4 5.1 3.08 4.25 2.86 3.62 2.66 3.08 2.5 2.66 2.35 2.3 2.23 2.02 2.13 1.76 2.04 1.54 1.96 1.37 1.9 1.2 1.83 1.06 1.8.93 1.7.8" stroke="#3a414a" stroke-width="3" stroke-linejoin="round" fill="none"/><path d="M2378 230.4l-.07 2.94-1.5-.03v-2.94z" stroke="#3a414a" stroke-width=".05" fill="#3a414a"/><path d="M2618.65 771.37l-14.28 4.57 3.17-14.66z" stroke="#3a414a" stroke-width="3" fill="#3a414a"/><path d="M2377.92 416.2l1.12.02 2.55.16 2.5.26 2.45.37 2.43.47 2.4.56 2.4.67 2.38.78 2.4.9 2.4 1 2.43 1.15 2.46 1.3 2.5 1.44 2.58 1.63 2.64 1.84 2.72 2.06 2.83 2.34 2.94 2.66 3.1 3.02 3.25 3.48 3.47 4 3.7 4.7 4.02 5.54 4.4 6.63 4.9 8.1 5.55 10.12 6.52 13.16 8.1 18.28 11.7 29.77 48.1 132.72 8.1 18.3 6.53 13.16 5.56 10.13 4.88 8.1 4.4 6.63 4.02 5.53 3.7 4.7 3.48 4 3.26 3.48 3.08 3.03 2.95 2.65 2.82 2.34 2.72 2.07 2.64 1.84 2.57 1.63 2.5 1.45 2.47 1.3 2.44 1.13 2.4 1.02 2.4.9 2.4.76.1.03" stroke="#3a414a" stroke-width="3" stroke-linejoin="round" fill="none"/><path d="M2378 414.72l-.07 2.95-1.5-.03v-2.95z" stroke="#3a414a" stroke-width=".05" fill="#3a414a"/><path d="M2618.6 771.57l-13.92 5.55 2.16-14.84z" stroke="#3a414a" stroke-width="3" fill="#3a414a"/><path d="M2377.92 587.7l3.5.07 4.73.3 4.53.47 4.37.65 4.2.8 4.1.95 4 1.12 3.93 1.27 3.87 1.44 3.83 1.62 3.82 1.8 3.83 2 3.87 2.23 3.92 2.5 4 2.77 4.14 3.14 4.3 3.56 4.53 4.1 4.85 4.75 5.32 5.66 6.02 7 7.26 9.2 10.4 14.36 37.88 55.1 7.27 9.2 6.03 7 5.32 5.66 4.85 4.76 4.54 4.08 4.3 3.57 4.13 3.13 4 2.8 3.93 2.48 3.86 2.23 3.84 2 3.82 1.8 3.83 1.6 3.87 1.45 3.92 1.28 4 1.1 4.1.97 4.2.8 1.22.2" stroke="#3a414a" stroke-width="3" stroke-linejoin="round" fill="none"/><path d="M2378 586.22l-.07 2.95-1.5-.03v-2.95z" stroke="#3a414a" stroke-width=".05" fill="#3a414a"/><path d="M2618.6 771.77l-13.54 6.48 1.16-14.96z" stroke="#3a414a" stroke-width="3" fill="#3a414a"/><path d="M2377.92 772h226.17" stroke="#3a414a" stroke-width="3" stroke-linejoin="round" fill="none"/><path d="M2377.96 773.48h-1.54v-2.96h1.54z" stroke="#3a414a" stroke-width=".05" fill="#3a414a"/><path d="M2618.58 772l-13 7.5v-15z" stroke="#3a414a" stroke-width="3" fill="#3a414a"/><path d="M2377.92 943.97l3.83-.08 5.06-.33 4.83-.5 4.6-.7 4.47-.83 4.3-1.02 4.2-1.17 4.12-1.34 4.05-1.5 4-1.68 4-1.88 4-2.1 4.04-2.32 4.1-2.6 4.2-2.9 4.33-3.3 4.53-3.76 4.82-4.34 5.2-5.1 5.85-6.23 6.88-8 9.22-11.66 42.17-56.95 6.87-8 5.84-6.2 5.22-5.13 4.82-4.33 4.53-3.76 4.33-3.3 4.2-2.9 4.1-2.6 4.02-2.33 4-2.1 4-1.87 4-1.7 4.06-1.5 4.1-1.33 4.2-1.17 4.32-1.02 4.45-.84 2.4-.36" stroke="#3a414a" stroke-width="3" stroke-linejoin="round" fill="none"/><path d="M2378 945.44l-1.58.03v-2.95l1.5-.03z" stroke="#3a414a" stroke-width=".05" fill="#3a414a"/><path d="M2618.6 772.22l-12.42 8.4-1.1-14.95z" stroke="#3a414a" stroke-width="3" fill="#3a414a"/><path d="M3441.33 533.67a6 6 0 0 1 6-6h148a6 6 0 0 1 6 6v108a6 6 0 0 1-6 6h-148a6 6 0 0 1-6-6z" stroke="#000" stroke-opacity="0" stroke-width="3" fill="#fc9432"/><use xlink:href="#o" transform="matrix(1,0,0,1,3453.3333333333335,539.6666666666861) translate(32.876543209876544 53.77777777777778)"/><use xlink:href="#p" transform="matrix(1,0,0,1,3453.3333333333335,539.6666666666861) translate(74.85185185185185 53.77777777777778)"/><path d="M2783.1 771.97l8.56-.18 9.37-.6 8.8-.92 8.3-1.22 7.9-1.5 7.58-1.8 7.32-2.03 7.1-2.3 6.96-2.6 6.86-2.88 6.82-3.2 6.86-3.6 6.96-4 7.16-4.56 7.5-5.23 8.06-6.12 8.97-7.43 10.73-9.68 15.78-15.52 48-49.1 10.73-9.67 8.98-7.43 8.05-6.12 7.5-5.22 7.18-4.55 6.97-4.02 6.85-3.58 6.83-3.2 6.86-2.9 6.96-2.58 7.1-2.3 7.3-2.05 7.6-1.78 7.9-1.5 8.3-1.23 8.8-.94 1.97-.12" stroke="#3a414a" stroke-width="3" stroke-linejoin="round" fill="none"/><path d="M2783.16 773.44l-1.58.03v-2.95l1.5-.03z" stroke="#3a414a" stroke-width=".05" fill="#3a414a"/><path d="M3129 587.78l-12.7 8-.57-15z" stroke="#3a414a" stroke-width="3" fill="#3a414a"/><path d="M3293.5 587.67h130.34" stroke="#3a414a" stroke-width="3" stroke-linejoin="round" fill="none"/><path d="M3293.54 589.14H3292v-2.95h1.54z" stroke="#3a414a" stroke-width=".05" fill="#3a414a"/><path d="M3438.33 587.67l-13 7.5v-15z" stroke="#3a414a" stroke-width="3" fill="#3a414a"/><defs><path fill="#333" d="M266 0h-40l-56-210L115 0H75L2-248h35L96-30l15-64 43-154h32l59 218 59-218h35" id="q"/><path fill="#333" d="M141-36C126-15 110 5 73 4 37 3 15-17 15-53c-1-64 63-63 125-63 3-35-9-54-41-54-24 1-41 7-42 31l-33-3c5-37 33-52 76-52 45 0 72 20 72 64v82c-1 20 7 32 28 27v20c-31 9-61-2-59-35zM48-53c0 20 12 33 32 33 41-3 63-29 60-74-43 2-92-5-92 41" id="r"/><path fill="#333" d="M108 0H70L1-190h34L89-25l56-165h34" id="s"/><path fill="#333" d="M100-194c63 0 86 42 84 106H49c0 40 14 67 53 68 26 1 43-12 49-29l28 8c-11 28-37 45-77 45C44 4 14-33 15-96c1-61 26-98 85-98zm52 81c6-60-76-77-97-28-3 7-6 17-6 28h103" id="t"/><g id="a"><use transform="matrix(0.06172839506172839,0,0,0.06172839506172839,0,0)" xlink:href="#q"/><use transform="matrix(0.06172839506172839,0,0,0.06172839506172839,20.123456790123456,0)" xlink:href="#r"/><use transform="matrix(0.06172839506172839,0,0,0.06172839506172839,32.46913580246913,0)" xlink:href="#s"/><use transform="matrix(0.06172839506172839,0,0,0.06172839506172839,43.58024691358024,0)" xlink:href="#t"/></g><path fill="#333" d="M185-189c-5-48-123-54-124 2 14 75 158 14 163 119 3 78-121 87-175 55-17-10-28-26-33-46l33-7c5 56 141 63 141-1 0-78-155-14-162-118-5-82 145-84 179-34 5 7 8 16 11 25" id="u"/><path fill="#333" d="M100-194c62-1 85 37 85 99 1 63-27 99-86 99S16-35 15-95c0-66 28-99 85-99zM99-20c44 1 53-31 53-75 0-43-8-75-51-75s-53 32-53 75 10 74 51 75" id="v"/><path fill="#333" d="M84 4C-5 8 30-112 23-190h32v120c0 31 7 50 39 49 72-2 45-101 50-169h31l1 190h-30c-1-10 1-25-2-33-11 22-28 36-60 37" id="w"/><path fill="#333" d="M114-163C36-179 61-72 57 0H25l-1-190h30c1 12-1 29 2 39 6-27 23-49 58-41v29" id="x"/><path fill="#333" d="M96-169c-40 0-48 33-48 73s9 75 48 75c24 0 41-14 43-38l32 2c-6 37-31 61-74 61-59 0-76-41-82-99-10-93 101-131 147-64 4 7 5 14 7 22l-32 3c-4-21-16-35-41-35" id="y"/><g id="b"><use transform="matrix(0.06172839506172839,0,0,0.06172839506172839,0,0)" xlink:href="#u"/><use transform="matrix(0.06172839506172839,0,0,0.06172839506172839,14.814814814814813,0)" xlink:href="#v"/><use transform="matrix(0.06172839506172839,0,0,0.06172839506172839,27.160493827160494,0)" xlink:href="#w"/><use transform="matrix(0.06172839506172839,0,0,0.06172839506172839,39.50617283950617,0)" xlink:href="#x"/><use transform="matrix(0.06172839506172839,0,0,0.06172839506172839,46.85185185185185,0)" xlink:href="#y"/><use transform="matrix(0.06172839506172839,0,0,0.06172839506172839,57.96296296296296,0)" xlink:href="#t"/></g><path fill="#333" d="M212-179c-10-28-35-45-73-45-59 0-87 40-87 99 0 60 29 101 89 101 43 0 62-24 78-52l27 14C228-24 195 4 139 4 59 4 22-46 18-125c-6-104 99-153 187-111 19 9 31 26 39 46" id="z"/><path fill="#333" d="M85-194c31 0 48 13 60 33l-1-100h32l1 261h-30c-2-10 0-23-3-31C134-8 116 4 85 4 32 4 16-35 15-94c0-66 23-100 70-100zm9 24c-40 0-46 34-46 75 0 40 6 74 45 74 42 0 51-32 51-76 0-42-9-74-50-73" id="A"/><g id="c"><use transform="matrix(0.06172839506172839,0,0,0.06172839506172839,0,0)" xlink:href="#z"/><use transform="matrix(0.06172839506172839,0,0,0.06172839506172839,15.987654320987653,0)" xlink:href="#v"/><use transform="matrix(0.06172839506172839,0,0,0.06172839506172839,28.333333333333332,0)" xlink:href="#A"/><use transform="matrix(0.06172839506172839,0,0,0.06172839506172839,40.67901234567901,0)" xlink:href="#t"/></g><path fill="#333" d="M80-196l47-18 7 23-49 13 32 44-20 13-27-46-27 45-21-12 33-44-49-13 8-23 47 19-2-53h23" id="B"/><path fill="#333" d="M33 0v-38h34V0H33" id="C"/><path fill="#333" d="M206 0h-36l-40-164L89 0H53L-1-190h32L70-26l43-164h34l41 164 42-164h31" id="D"/><g id="d"><use transform="matrix(0.06172839506172839,0,0,0.06172839506172839,0,0)" xlink:href="#B"/><use transform="matrix(0.06172839506172839,0,0,0.06172839506172839,8.641975308641975,0)" xlink:href="#C"/><use transform="matrix(0.06172839506172839,0,0,0.06172839506172839,14.814814814814813,0)" xlink:href="#D"/><use transform="matrix(0.06172839506172839,0,0,0.06172839506172839,30.80246913580247,0)" xlink:href="#r"/><use transform="matrix(0.06172839506172839,0,0,0.06172839506172839,43.148148148148145,0)" xlink:href="#s"/><use transform="matrix(0.06172839506172839,0,0,0.06172839506172839,54.25925925925925,0)" xlink:href="#t"/></g><path fill="#333" d="M210-169c-67 3-38 105-44 169h-31v-121c0-29-5-50-35-48C34-165 62-65 56 0H25l-1-190h30c1 10-1 24 2 32 10-44 99-50 107 0 11-21 27-35 58-36 85-2 47 119 55 194h-31v-121c0-29-5-49-35-48" id="E"/><path fill="#333" d="M115-194c55 1 70 41 70 98S169 2 115 4C84 4 66-9 55-30l1 105H24l-1-265h31l2 30c10-21 28-34 59-34zm-8 174c40 0 45-34 45-75s-6-73-45-74c-42 0-51 32-51 76 0 43 10 73 51 73" id="F"/><path fill="#333" d="M24-231v-30h32v30H24zM24 0v-190h32V0H24" id="G"/><path fill="#333" d="M24 0v-261h32V0H24" id="H"/><g id="e"><use transform="matrix(0.06172839506172839,0,0,0.06172839506172839,0,0)" xlink:href="#z"/><use transform="matrix(0.06172839506172839,0,0,0.06172839506172839,15.987654320987653,0)" xlink:href="#v"/><use transform="matrix(0.06172839506172839,0,0,0.06172839506172839,28.333333333333332,0)" xlink:href="#E"/><use transform="matrix(0.06172839506172839,0,0,0.06172839506172839,46.79012345679012,0)" xlink:href="#F"/><use transform="matrix(0.06172839506172839,0,0,0.06172839506172839,59.1358024691358,0)" xlink:href="#G"/><use transform="matrix(0.06172839506172839,0,0,0.06172839506172839,64.01234567901234,0)" xlink:href="#H"/><use transform="matrix(0.06172839506172839,0,0,0.06172839506172839,68.88888888888889,0)" xlink:href="#t"/><use transform="matrix(0.06172839506172839,0,0,0.06172839506172839,81.23456790123457,0)" xlink:href="#x"/></g><path fill="#333" d="M30 0v-248h33v221h125V0H30" id="I"/><path fill="#333" d="M117-194c89-4 53 116 60 194h-32v-121c0-31-8-49-39-48C34-167 62-67 57 0H25l-1-190h30c1 10-1 24 2 32 11-22 29-35 61-36" id="J"/><path fill="#333" d="M141 0L90-78 38 0H4l68-98-65-92h35l48 74 47-74h35l-64 92 68 98h-35" id="K"/><g id="f"><use transform="matrix(0.06172839506172839,0,0,0.06172839506172839,0,0)" xlink:href="#I"/><use transform="matrix(0.06172839506172839,0,0,0.06172839506172839,12.345679012345679,0)" xlink:href="#G"/><use transform="matrix(0.06172839506172839,0,0,0.06172839506172839,17.22222222222222,0)" xlink:href="#J"/><use transform="matrix(0.06172839506172839,0,0,0.06172839506172839,29.5679012345679,0)" xlink:href="#w"/><use transform="matrix(0.06172839506172839,0,0,0.06172839506172839,41.913580246913575,0)" xlink:href="#K"/></g><path fill="#333" d="M232-93c-1 65-40 97-104 97C67 4 28-28 28-90v-158h33c8 89-33 224 67 224 102 0 64-133 71-224h33v155" id="L"/><path fill="#333" d="M190 0L58-211 59 0H30v-248h39L202-35l-2-213h31V0h-41" id="M"/><path fill="#333" d="M33 0v-248h34V0H33" id="N"/><path fill="#333" d="M195 0l-74-108L45 0H8l94-129-87-119h37l69 98 67-98h37l-84 118L233 0h-38" id="O"/><g id="g"><use transform="matrix(0.06172839506172839,0,0,0.06172839506172839,0,0)" xlink:href="#L"/><use transform="matrix(0.06172839506172839,0,0,0.06172839506172839,15.987654320987653,0)" xlink:href="#M"/><use transform="matrix(0.06172839506172839,0,0,0.06172839506172839,31.975308641975307,0)" xlink:href="#N"/><use transform="matrix(0.06172839506172839,0,0,0.06172839506172839,38.148148148148145,0)" xlink:href="#O"/></g><path fill="#333" d="M127-220V0H93v-220H8v-28h204v28h-85" id="P"/><g id="h"><use transform="matrix(0.06172839506172839,0,0,0.06172839506172839,0,0)" xlink:href="#M"/><use transform="matrix(0.06172839506172839,0,0,0.06172839506172839,15.987654320987653,0)" xlink:href="#P"/></g><path fill="#333" d="M30-248c118-7 216 8 213 122C240-48 200 0 122 0H30v-248zM63-27c89 8 146-16 146-99s-60-101-146-95v194" id="Q"/><g id="i"><use transform="matrix(0.06172839506172839,0,0,0.06172839506172839,0,0)" xlink:href="#Q"/><use transform="matrix(0.06172839506172839,0,0,0.06172839506172839,15.987654320987653,0)" xlink:href="#r"/><use transform="matrix(0.06172839506172839,0,0,0.06172839506172839,28.333333333333332,0)" xlink:href="#x"/><use transform="matrix(0.06172839506172839,0,0,0.06172839506172839,35.67901234567901,0)" xlink:href="#D"/><use transform="matrix(0.06172839506172839,0,0,0.06172839506172839,51.666666666666664,0)" xlink:href="#G"/><use transform="matrix(0.06172839506172839,0,0,0.06172839506172839,56.54320987654321,0)" xlink:href="#J"/></g><path fill="#333" d="M209 0H11v-25l151-195H24v-28h176v25L50-27h159V0" id="R"/><g id="j"><use transform="matrix(0.06172839506172839,0,0,0.06172839506172839,0,0)" xlink:href="#R"/><use transform="matrix(0.06172839506172839,0,0,0.06172839506172839,13.518518518518517,0)" xlink:href="#G"/><use transform="matrix(0.06172839506172839,0,0,0.06172839506172839,18.39506172839506,0)" xlink:href="#x"/><use transform="matrix(0.06172839506172839,0,0,0.06172839506172839,25.74074074074074,0)" xlink:href="#y"/><use transform="matrix(0.06172839506172839,0,0,0.06172839506172839,36.85185185185185,0)" xlink:href="#v"/><use transform="matrix(0.06172839506172839,0,0,0.06172839506172839,49.197530864197525,0)" xlink:href="#J"/></g><path fill="#333" d="M134-131c28 9 52 24 51 62-1 50-34 73-85 73S17-19 16-69c0-36 21-54 49-61-75-25-45-126 34-121 46 3 78 18 79 63 0 33-17 51-44 57zm-34-11c31 1 46-15 46-44 0-28-17-43-47-42-29 0-46 13-45 42 1 28 16 44 46 44zm1 122c35 0 51-18 51-52 0-30-18-46-53-46-33 0-51 17-51 47 0 34 19 51 53 51" id="S"/><path fill="#333" d="M110-160c48 1 74 30 74 79 0 53-28 85-80 85-65 0-83-55-86-122-5-90 50-162 133-122 14 7 22 21 27 39l-31 6c-5-40-67-38-82-6-9 19-15 44-15 74 11-20 30-34 60-33zm-7 138c34 0 49-23 49-58s-16-56-50-56c-29 0-50 16-49 49 1 36 15 65 50 65" id="T"/><g id="k"><use transform="matrix(0.06172839506172839,0,0,0.06172839506172839,0,0)" xlink:href="#K"/><use transform="matrix(0.06172839506172839,0,0,0.06172839506172839,11.11111111111111,0)" xlink:href="#S"/><use transform="matrix(0.06172839506172839,0,0,0.06172839506172839,23.45679012345679,0)" xlink:href="#T"/></g><path fill="#333" d="M205 0l-28-72H64L36 0H1l101-248h38L239 0h-34zm-38-99l-47-123c-12 45-31 82-46 123h93" id="U"/><path fill="#333" d="M240 0l2-218c-23 76-54 145-80 218h-23L58-218 59 0H30v-248h44l77 211c21-75 51-140 76-211h43V0h-30" id="V"/><g id="l"><use transform="matrix(0.06172839506172839,0,0,0.06172839506172839,0,0)" xlink:href="#U"/><use transform="matrix(0.06172839506172839,0,0,0.06172839506172839,14.814814814814813,0)" xlink:href="#u"/><use transform="matrix(0.06172839506172839,0,0,0.06172839506172839,29.629629629629626,0)" xlink:href="#V"/></g><g id="m"><use transform="matrix(0.06172839506172839,0,0,0.06172839506172839,0,0)" xlink:href="#V"/><use transform="matrix(0.06172839506172839,0,0,0.06172839506172839,18.456790123456788,0)" xlink:href="#I"/></g><g id="n"><use transform="matrix(0.06172839506172839,0,0,0.06172839506172839,0,0)" xlink:href="#U"/><use transform="matrix(0.06172839506172839,0,0,0.06172839506172839,14.814814814814813,0)" xlink:href="#x"/><use transform="matrix(0.06172839506172839,0,0,0.06172839506172839,22.160493827160494,0)" xlink:href="#E"/></g><g id="o"><use transform="matrix(0.06172839506172839,0,0,0.06172839506172839,0,0)" xlink:href="#t"/><use transform="matrix(0.06172839506172839,0,0,0.06172839506172839,12.345679012345679,0)" xlink:href="#K"/><use transform="matrix(0.06172839506172839,0,0,0.06172839506172839,23.45679012345679,0)" xlink:href="#t"/></g><path fill="#333" d="M101-234c-31-9-42 10-38 44h38v23H63V0H32v-167H5v-23h27c-7-52 17-82 69-68v24" id="W"/><g id="p"><use transform="matrix(0.06172839506172839,0,0,0.06172839506172839,0,0)" xlink:href="#W"/><use transform="matrix(0.06172839506172839,0,0,0.06172839506172839,6.172839506172839,0)" xlink:href="#G"/><use transform="matrix(0.06172839506172839,0,0,0.06172839506172839,11.049382716049383,0)" xlink:href="#H"/><use transform="matrix(0.06172839506172839,0,0,0.06172839506172839,15.925925925925926,0)" xlink:href="#t"/></g></defs></g></svg>